<svg width="342" height="180" viewBox="0 0 342 180" fill="none" xmlns="http://www.w3.org/2000/svg">
<g opacity="0.5" clip-path="url(#clip0_1794_3430)">
<g clip-path="url(#clip1_1794_3430)">
<path d="M321.518 112.857H20.194C16.9091 112.857 14.2461 115.516 14.2461 118.797V156.805C14.2461 160.086 16.9091 162.745 20.194 162.745H321.518C324.803 162.745 327.466 160.086 327.466 156.805V118.797C327.466 115.516 324.803 112.857 321.518 112.857Z" fill="#303030"/>
<path d="M47.0704 125.558H31.2506C28.8481 125.558 26.9004 127.503 26.9004 129.902V145.699C26.9004 148.098 28.8481 150.043 31.2506 150.043H47.0704C49.4729 150.043 51.4206 148.098 51.4206 145.699V129.902C51.4206 127.503 49.4729 125.558 47.0704 125.558Z" fill="#484848"/>
<path fill-rule="evenodd" clip-rule="evenodd" d="M37.7761 132.469V135.629H40.5435V132.469H41.7306V135.629H43.7083V136.813H41.7298V138.788H43.7075V139.973H41.7298V143.132H40.5435V139.973H37.7753V143.132H36.5882V139.973H34.6113V138.788H36.5882V136.813H34.6113V135.629H36.5882V132.469H37.7761ZM37.7761 136.813V138.788H40.5435V136.813H37.7761Z" fill="white"/>
<path d="M47.0704 125.558H31.2506C28.8481 125.558 26.9004 127.503 26.9004 129.902V145.699C26.9004 148.098 28.8481 150.043 31.2506 150.043H47.0704C49.4729 150.043 51.4206 148.098 51.4206 145.699V129.902C51.4206 127.503 49.4729 125.558 47.0704 125.558Z" stroke="#585858" stroke-width="0.790021"/>
<path d="M67.9129 135.47C67.9129 136.581 67.2547 137.087 66.5077 137.34V137.365C67.4569 137.529 68.2673 138.25 68.2673 139.602C68.2673 141.27 67.0779 142.231 65.2049 142.231H61.3066V133.194H64.9511C66.7987 133.194 67.9129 134.066 67.9129 135.47ZM62.4453 136.973H65.1288C66.4197 136.973 66.7742 136.417 66.7742 135.595C66.7742 134.774 66.2928 134.206 65.2548 134.206H62.4453V136.973ZM62.4453 137.984V141.219H65.3183C66.7734 141.219 67.1278 140.449 67.1278 139.601C67.1278 138.629 66.5204 137.984 65.5712 137.984H62.4453ZM73.5771 135.786H74.5897V142.231H73.5771V141.46H73.5517C73.2099 141.914 72.5264 142.408 71.4257 142.408C70.2482 142.408 69.2609 141.763 69.2609 140.284V135.786H70.2735V140.031C70.2735 140.865 70.6661 141.522 71.6787 141.522C72.8174 141.522 73.5771 140.802 73.5771 139.804V135.786ZM76.6181 134.534C76.3398 134.534 75.9853 134.319 75.9853 133.928C75.9853 133.536 76.3398 133.321 76.6181 133.321C76.9091 133.321 77.2509 133.536 77.2509 133.928C77.2509 134.319 76.9099 134.534 76.6181 134.534ZM76.1122 135.786H77.124V142.231H76.1122V135.786ZM78.5569 133.195H79.5695V142.23H78.5569V133.195ZM85.5969 133.195H86.6095V142.23H85.5969V141.434H85.5715C85.1925 141.927 84.5843 142.408 83.5471 142.408C81.927 142.408 80.6369 141.131 80.6369 139.007C80.6369 136.885 81.927 135.608 83.5471 135.608C84.5843 135.608 85.1925 136.063 85.5715 136.619H85.5969V133.195ZM83.6486 141.522C84.8507 141.522 85.5969 140.525 85.5969 139.007C85.5969 137.491 84.8507 136.493 83.6486 136.493C82.3195 136.493 81.6487 137.744 81.6487 139.007C81.6487 140.271 82.3195 141.522 83.6486 141.522ZM91.4308 136.114H90.2905C90.2905 134.509 91.3412 133.321 93.5052 133.321C94.9983 133.321 96.3147 134.192 96.3147 135.735C96.3147 136.657 95.8587 137.239 94.973 137.592V137.618C96.2132 137.958 96.6311 138.755 96.6311 139.779C96.6311 141.497 95.4035 142.408 93.5306 142.408C91.3031 142.408 90.0629 141.244 90.0629 139.274H91.2016C91.2016 140.537 91.7836 141.396 93.4417 141.396C94.9476 141.396 95.4924 140.828 95.4924 139.779C95.4924 138.414 94.4924 138.174 93.6447 138.174H92.709V137.162H93.5948C94.4932 137.162 95.1768 136.746 95.1768 135.735C95.1768 135.027 94.6954 134.332 93.506 134.332C91.7971 134.332 91.4308 135.255 91.4308 136.114Z" fill="white"/>
<path d="M150.401 130.068H149.496C149.404 129.59 149.13 129.167 148.733 128.886C148.544 128.749 148.332 128.646 148.108 128.58C147.876 128.511 147.635 128.477 147.393 128.478C146.94 128.478 146.53 128.592 146.162 128.821C145.797 129.049 145.506 129.386 145.289 129.83C145.075 130.275 144.968 130.821 144.968 131.468C144.968 132.115 145.075 132.66 145.289 133.104C145.506 133.549 145.797 133.887 146.162 134.115C146.53 134.344 146.94 134.458 147.393 134.458C147.641 134.458 147.88 134.424 148.108 134.356C148.337 134.287 148.545 134.187 148.733 134.053C149.129 133.769 149.401 133.345 149.496 132.868H150.401C150.341 133.229 150.215 133.576 150.03 133.892C149.849 134.193 149.625 134.451 149.357 134.662C149.087 134.872 148.782 135.034 148.456 135.139C148.112 135.251 147.754 135.306 147.393 135.303C146.755 135.303 146.188 135.148 145.691 134.836C145.195 134.526 144.804 134.084 144.519 133.51C144.235 132.936 144.092 132.256 144.092 131.468C144.092 130.68 144.235 130 144.519 129.426C144.804 128.852 145.195 128.41 145.691 128.099C146.188 127.787 146.755 127.631 147.393 127.631C147.77 127.631 148.124 127.687 148.456 127.796C148.789 127.905 149.09 128.065 149.357 128.277C149.625 128.487 149.849 128.741 150.03 129.043C150.21 129.342 150.333 129.684 150.401 130.068ZM151.748 135.201V129.601H152.581V130.447H152.639C152.742 130.17 152.926 129.945 153.194 129.772C153.464 129.599 153.779 129.509 154.1 129.514C154.163 129.514 154.242 129.514 154.337 129.517C154.432 129.519 154.503 129.523 154.553 129.528V130.403C154.486 130.389 154.419 130.378 154.351 130.37C154.244 130.353 154.136 130.344 154.027 130.345C153.754 130.345 153.511 130.402 153.297 130.516C153.089 130.624 152.915 130.785 152.792 130.983C152.671 131.18 152.61 131.404 152.61 131.657V135.201H151.748ZM157.755 135.318C157.215 135.318 156.748 135.2 156.357 134.961C155.965 134.719 155.652 134.37 155.454 133.955C155.245 133.522 155.14 133.019 155.14 132.445C155.14 131.872 155.245 131.366 155.454 130.928C155.647 130.51 155.954 130.154 156.338 129.9C156.717 129.652 157.161 129.528 157.667 129.528C157.959 129.528 158.248 129.577 158.533 129.673C158.817 129.771 159.077 129.929 159.31 130.148C159.544 130.364 159.73 130.651 159.869 131.008C160.008 131.366 160.077 131.806 160.077 132.328V132.693H155.754V131.948H159.201C159.201 131.633 159.138 131.351 159.011 131.104C158.892 130.861 158.708 130.657 158.478 130.516C158.234 130.368 157.953 130.294 157.667 130.301C157.324 130.301 157.027 130.386 156.776 130.556C156.531 130.721 156.333 130.947 156.203 131.213C156.069 131.482 156 131.78 156.002 132.081V132.576C156.002 132.999 156.075 133.358 156.221 133.652C156.369 133.944 156.576 134.166 156.838 134.319C157.101 134.47 157.407 134.546 157.755 134.546C157.981 134.546 158.186 134.514 158.368 134.451C158.553 134.385 158.713 134.287 158.847 134.158C158.985 134.02 159.091 133.854 159.157 133.67L159.989 133.903C159.902 134.185 159.755 134.434 159.548 134.648C159.33 134.866 159.069 135.035 158.781 135.143C158.452 135.264 158.105 135.324 157.755 135.318ZM163.038 135.333C162.705 135.337 162.375 135.269 162.071 135.132C161.791 135.004 161.552 134.801 161.381 134.546C161.21 134.287 161.125 133.976 161.125 133.611C161.125 133.291 161.188 133.031 161.315 132.831C161.442 132.629 161.611 132.472 161.823 132.358C162.034 132.243 162.268 132.158 162.524 132.102C162.782 132.043 163.041 131.997 163.301 131.963C163.642 131.92 163.918 131.887 164.13 131.865C164.344 131.841 164.5 131.801 164.598 131.745C164.698 131.689 164.748 131.591 164.748 131.453V131.424C164.748 131.064 164.649 130.784 164.452 130.585C164.257 130.386 163.961 130.286 163.565 130.286C163.153 130.286 162.83 130.377 162.597 130.556C162.363 130.736 162.198 130.928 162.104 131.132L161.286 130.841C161.432 130.5 161.627 130.235 161.87 130.046C162.116 129.854 162.384 129.72 162.673 129.645C162.954 129.569 163.244 129.529 163.535 129.528C163.715 129.528 163.922 129.55 164.156 129.593C164.392 129.635 164.619 129.721 164.839 129.852C165.06 129.984 165.244 130.182 165.39 130.446C165.536 130.712 165.609 131.066 165.609 131.511V135.201H164.748V134.443H164.703C164.628 134.588 164.53 134.72 164.412 134.833C164.255 134.985 164.07 135.105 163.868 135.187C163.641 135.284 163.365 135.333 163.038 135.333ZM163.17 134.56C163.511 134.56 163.798 134.493 164.032 134.36C164.246 134.243 164.425 134.072 164.551 133.864C164.677 133.656 164.745 133.417 164.748 133.174V132.386C164.711 132.431 164.631 132.47 164.507 132.507C164.367 132.544 164.225 132.575 164.083 132.598C163.808 132.64 163.534 132.677 163.258 132.708C163.044 132.735 162.834 132.782 162.63 132.85C162.437 132.913 162.282 133.009 162.162 133.138C162.045 133.264 161.987 133.437 161.987 133.656C161.987 133.954 162.098 134.181 162.319 134.333C162.543 134.484 162.827 134.56 163.17 134.56ZM169.621 129.601V130.33H166.714V129.601H169.621V129.601ZM167.562 128.259H168.423V133.597C168.423 133.84 168.459 134.022 168.53 134.143C168.591 134.253 168.689 134.339 168.807 134.385C168.921 134.424 169.042 134.443 169.169 134.443C169.264 134.443 169.342 134.438 169.403 134.428L169.549 134.399L169.724 135.172C169.644 135.2 169.562 135.222 169.479 135.238C169.348 135.265 169.214 135.277 169.081 135.274C168.837 135.274 168.599 135.222 168.365 135.117C168.134 135.012 167.934 134.848 167.788 134.64C167.637 134.426 167.562 134.157 167.562 133.831V128.259ZM173.209 135.318C172.669 135.318 172.203 135.2 171.81 134.961C171.419 134.718 171.106 134.369 170.908 133.955C170.699 133.522 170.594 133.019 170.594 132.445C170.594 131.872 170.699 131.366 170.908 130.928C171.102 130.51 171.407 130.154 171.792 129.9C172.172 129.652 172.615 129.528 173.122 129.528C173.413 129.528 173.702 129.577 173.987 129.673C174.271 129.771 174.531 129.929 174.765 130.148C174.998 130.364 175.184 130.651 175.323 131.008C175.462 131.366 175.531 131.806 175.531 132.328V132.693H171.208V131.948H174.655C174.655 131.633 174.592 131.351 174.465 131.104C174.346 130.861 174.162 130.658 173.932 130.516C173.688 130.368 173.407 130.294 173.122 130.301C172.778 130.301 172.481 130.386 172.23 130.556C171.985 130.721 171.787 130.947 171.657 131.213C171.523 131.482 171.454 131.78 171.456 132.081V132.576C171.456 132.999 171.529 133.358 171.675 133.652C171.824 133.944 172.03 134.166 172.292 134.319C172.555 134.47 172.861 134.546 173.209 134.546C173.436 134.546 173.639 134.514 173.823 134.451C174.007 134.385 174.167 134.287 174.301 134.158C174.439 134.02 174.545 133.854 174.611 133.67L175.443 133.903C175.356 134.185 175.209 134.434 175.002 134.648C174.785 134.866 174.523 135.035 174.235 135.143C173.907 135.264 173.559 135.324 173.209 135.318ZM178.96 135.318C178.492 135.318 178.08 135.2 177.722 134.964C177.364 134.727 177.084 134.391 176.883 133.959C176.68 133.523 176.579 133.009 176.579 132.416C176.579 131.827 176.68 131.317 176.883 130.884C177.084 130.452 177.366 130.118 177.726 129.882C178.086 129.646 178.503 129.528 178.975 129.528C179.34 129.528 179.628 129.589 179.84 129.71C180.055 129.829 180.217 129.966 180.33 130.118C180.444 130.269 180.533 130.393 180.596 130.491H180.669V127.734H181.531V135.201H180.698V134.341H180.596C180.533 134.443 180.442 134.572 180.326 134.728C180.189 134.898 180.019 135.038 179.825 135.139C179.609 135.258 179.32 135.318 178.96 135.318ZM179.077 134.546C179.423 134.546 179.714 134.455 179.953 134.276C180.192 134.093 180.373 133.842 180.497 133.521C180.622 133.197 180.683 132.824 180.683 132.401C180.683 131.983 180.622 131.617 180.501 131.304C180.379 130.987 180.199 130.742 179.96 130.567C179.722 130.39 179.427 130.301 179.077 130.301C178.712 130.301 178.408 130.395 178.164 130.582C177.915 130.777 177.727 131.039 177.62 131.336C177.5 131.653 177.441 132.008 177.441 132.401C177.441 132.8 177.502 133.161 177.623 133.488C177.748 133.811 177.93 134.069 178.171 134.261C178.415 134.451 178.717 134.546 179.077 134.546Z" fill="#A1A1A1"/>
<path d="M220.024 141.652H147.256C145.508 141.652 144.092 143.066 144.092 144.811C144.092 146.556 145.508 147.971 147.256 147.971H220.024C221.771 147.971 223.187 146.556 223.187 144.811C223.187 143.066 221.771 141.652 220.024 141.652Z" fill="#484848"/>
<path d="M309.519 128.799H267.365C264.356 128.799 261.916 131.236 261.916 134.241V141.362C261.916 144.367 264.356 146.804 267.365 146.804H309.519C312.528 146.804 314.968 144.367 314.968 141.362V134.241C314.968 131.236 312.528 128.799 309.519 128.799Z" fill="#262626"/>
<path d="M272.752 140.625V134.881H274.803C275.248 134.881 275.618 134.958 275.912 135.111C276.208 135.265 276.429 135.477 276.575 135.748C276.721 136.017 276.794 136.329 276.794 136.682C276.794 137.034 276.72 137.343 276.572 137.61C276.421 137.88 276.189 138.097 275.91 138.23C275.615 138.378 275.245 138.452 274.799 138.452H273.247V137.706H274.721C275.002 137.706 275.231 137.665 275.407 137.585C275.573 137.515 275.71 137.392 275.797 137.235C275.883 137.064 275.926 136.874 275.921 136.682C275.921 136.465 275.879 136.277 275.794 136.118C275.708 135.957 275.571 135.828 275.404 135.754C275.228 135.667 274.996 135.625 274.71 135.625H273.62V140.625H272.752ZM275.592 138.034L277.013 140.625H276.025L274.631 138.034H275.592ZM279.546 140.712C279.142 140.712 278.789 140.62 278.487 140.435C278.183 140.248 277.94 139.978 277.785 139.658C277.618 139.325 277.535 138.936 277.535 138.491C277.535 138.044 277.618 137.654 277.785 137.319C277.94 136.997 278.183 136.726 278.487 136.539C278.789 136.353 279.142 136.262 279.546 136.262C279.951 136.262 280.303 136.353 280.605 136.539C280.906 136.724 281.141 136.984 281.307 137.319C281.474 137.654 281.557 138.044 281.557 138.49C281.557 138.936 281.474 139.325 281.307 139.658C281.141 139.99 280.906 140.25 280.605 140.434C280.303 140.62 279.951 140.712 279.546 140.712ZM279.549 140.008C279.811 140.008 280.028 139.939 280.2 139.801C280.377 139.656 280.509 139.465 280.583 139.248C280.667 139.019 280.709 138.765 280.709 138.488C280.711 138.23 280.669 137.974 280.583 137.731C280.51 137.513 280.377 137.32 280.2 137.173C280.028 137.033 279.811 136.962 279.549 136.962C279.284 136.962 279.066 137.033 278.892 137.173C278.715 137.32 278.581 137.513 278.507 137.731C278.424 137.961 278.383 138.213 278.383 138.488C278.383 138.765 278.424 139.019 278.507 139.248C278.591 139.478 278.719 139.662 278.892 139.801C279.066 139.94 279.284 140.008 279.549 140.008ZM283.334 134.881V140.625H282.494V134.881H283.334ZM285.304 134.881V140.625H284.464V134.881H285.304ZM286.501 140.625V134.881H287.341V137.015H287.392C287.453 136.906 287.524 136.802 287.603 136.704C287.694 136.586 287.822 136.484 287.984 136.395C288.147 136.306 288.362 136.261 288.63 136.261C288.979 136.261 289.289 136.349 289.563 136.525C289.836 136.7 290.051 136.954 290.206 137.285C290.364 137.616 290.442 138.014 290.442 138.479C290.442 138.945 290.365 139.345 290.209 139.677C290.072 139.987 289.85 140.253 289.568 140.443C289.292 140.622 288.969 140.715 288.639 140.71C288.377 140.71 288.163 140.666 287.996 140.578C287.847 140.503 287.715 140.397 287.608 140.269C287.528 140.17 287.455 140.066 287.392 139.955H287.322V140.625H286.501ZM287.324 138.471C287.324 138.774 287.369 139.04 287.457 139.268C287.545 139.496 287.672 139.674 287.838 139.803C288.005 139.93 288.209 139.994 288.45 139.994C288.702 139.994 288.911 139.928 289.08 139.795C289.248 139.661 289.376 139.479 289.462 139.248C289.55 139.019 289.594 138.76 289.594 138.471C289.594 138.186 289.551 137.932 289.465 137.706C289.391 137.494 289.258 137.308 289.082 137.17C288.914 137.039 288.703 136.973 288.45 136.973C288.207 136.973 288.002 137.037 287.833 137.162C287.659 137.297 287.527 137.479 287.454 137.686C287.363 137.938 287.319 138.204 287.324 138.471ZM292.641 140.721C292.368 140.721 292.12 140.67 291.899 140.569C291.686 140.472 291.504 140.318 291.374 140.123C291.246 139.929 291.183 139.69 291.183 139.408C291.183 139.165 291.23 138.965 291.323 138.808C291.417 138.65 291.544 138.527 291.702 138.435C291.862 138.343 292.04 138.274 292.236 138.228C292.433 138.18 292.633 138.145 292.837 138.121L293.467 138.048C293.628 138.027 293.745 137.995 293.818 137.95C293.891 137.905 293.927 137.832 293.927 137.731V137.711C293.927 137.466 293.858 137.276 293.72 137.141C293.582 137.007 293.379 136.94 293.107 136.94C292.824 136.94 292.602 137.003 292.439 137.128C292.277 137.251 292.166 137.389 292.104 137.54L291.315 137.361C291.409 137.099 291.545 136.888 291.725 136.727C291.907 136.564 292.115 136.446 292.352 136.373C292.592 136.298 292.843 136.26 293.096 136.262C293.268 136.262 293.451 136.282 293.644 136.323C293.839 136.363 294.02 136.435 294.188 136.542C294.359 136.648 294.498 136.801 294.607 136.999C294.716 137.195 294.77 137.45 294.77 137.764V140.625H293.95V140.036H293.916C293.853 140.156 293.771 140.264 293.672 140.356C293.551 140.469 293.408 140.558 293.253 140.617C293.058 140.691 292.85 140.726 292.641 140.72V140.721ZM292.824 140.048C293.056 140.048 293.254 140.002 293.419 139.91C293.586 139.818 293.712 139.699 293.798 139.551C293.885 139.406 293.93 139.24 293.93 139.072V138.517C293.879 138.557 293.82 138.586 293.756 138.601C293.661 138.627 293.564 138.649 293.467 138.665L293.15 138.712L292.891 138.746C292.739 138.764 292.589 138.799 292.445 138.85C292.322 138.892 292.211 138.964 292.124 139.061C292.042 139.161 292 139.289 292.006 139.419C292.006 139.627 292.083 139.784 292.236 139.89C292.39 139.995 292.586 140.048 292.824 140.048ZM297.706 140.712C297.288 140.712 296.929 140.617 296.627 140.429C296.327 140.237 296.087 139.964 295.936 139.641C295.775 139.306 295.695 138.923 295.695 138.491C295.695 138.053 295.777 137.668 295.942 137.333C296.106 136.996 296.339 136.733 296.639 136.544C296.938 136.356 297.291 136.262 297.697 136.262C298.025 136.262 298.317 136.322 298.574 136.444C298.83 136.562 299.037 136.732 299.194 136.948C299.354 137.165 299.448 137.418 299.478 137.708H298.661C298.616 137.506 298.508 137.324 298.352 137.187C298.193 137.041 297.98 136.968 297.711 136.968C297.478 136.968 297.272 137.03 297.096 137.153C296.922 137.274 296.787 137.448 296.689 137.675C296.587 137.928 296.537 138.199 296.543 138.471C296.543 138.785 296.591 139.057 296.686 139.285C296.782 139.513 296.917 139.689 297.091 139.815C297.267 139.94 297.474 140.003 297.711 140.003C297.871 140.003 298.015 139.974 298.144 139.916C298.275 139.856 298.385 139.771 298.473 139.661C298.562 139.55 298.625 139.418 298.661 139.263H299.478C299.452 139.53 299.359 139.787 299.206 140.008C299.051 140.23 298.841 140.408 298.596 140.525C298.343 140.65 298.047 140.712 297.706 140.712ZM301.149 139.164L301.143 138.141H301.289L303.009 136.317H304.014L302.053 138.393H301.921L301.149 139.164ZM300.377 140.625V134.881H301.216V140.625H300.377ZM303.101 140.625L301.556 138.578L302.135 137.992L304.132 140.625H303.101Z" fill="white"/>
<path d="M309.519 128.799H267.365C264.356 128.799 261.916 131.236 261.916 134.241V141.362C261.916 144.367 264.356 146.804 267.365 146.804H309.519C312.528 146.804 314.968 144.367 314.968 141.362V134.241C314.968 131.236 312.528 128.799 309.519 128.799Z" stroke="#484848" stroke-width="0.473854"/>
<path d="M321.518 112.857H20.194C16.9091 112.857 14.2461 115.516 14.2461 118.797V156.805C14.2461 160.086 16.9091 162.745 20.194 162.745H321.518C324.803 162.745 327.466 160.086 327.466 156.805V118.797C327.466 115.516 324.803 112.857 321.518 112.857Z" stroke="#484848" stroke-width="0.790021"/>
</g>
</g>
<g opacity="0.5" clip-path="url(#clip2_1794_3430)">
<g clip-path="url(#clip3_1794_3430)">
<path d="M321.518 15.9326H20.194C16.9091 15.9326 14.2461 18.5919 14.2461 21.8723V59.8809C14.2461 63.1612 16.9091 65.8205 20.194 65.8205H321.518C324.803 65.8205 327.466 63.1612 327.466 59.8809V21.8723C327.466 18.5919 324.803 15.9326 321.518 15.9326Z" fill="#303030"/>
<path d="M47.0704 28.6338H31.2506C28.8481 28.6338 26.9004 30.5786 26.9004 32.9778V48.7747C26.9004 51.1738 28.8481 53.1187 31.2506 53.1187H47.0704C49.4729 53.1187 51.4206 51.1738 51.4206 48.7747V32.9778C51.4206 30.5786 49.4729 28.6338 47.0704 28.6338Z" fill="#484848"/>
<path fill-rule="evenodd" clip-rule="evenodd" d="M37.7761 35.5449V38.7043H40.5435V35.5449H41.7306V38.7043H43.7083V39.8889H41.7298V41.8637H43.7075V43.0483H41.7298V46.2077H40.5435V43.0483H37.7753V46.2077H36.5882V43.0483H34.6113V41.8637H36.5882V39.8889H34.6113V38.7051H36.5882V35.5457H37.7753L37.7761 35.5449ZM37.7761 39.8889V41.8637H40.5435V39.8889H37.7761Z" fill="white"/>
<path d="M47.0704 28.6338H31.2506C28.8481 28.6338 26.9004 30.5786 26.9004 32.9778V48.7747C26.9004 51.1738 28.8481 53.1187 31.2506 53.1187H47.0704C49.4729 53.1187 51.4206 51.1738 51.4206 48.7747V32.9778C51.4206 30.5786 49.4729 28.6338 47.0704 28.6338Z" stroke="#585858" stroke-width="0.790021"/>
<path d="M67.914 38.5446C67.914 39.4711 67.4462 40.095 66.5089 40.4149V40.4403C67.0034 40.5133 67.4538 40.7652 67.7745 41.1482C68.1036 41.5275 68.2685 42.0374 68.2685 42.6772C68.2685 43.5031 67.9941 44.1476 67.4454 44.6108C66.8974 45.074 66.1505 45.3061 65.2052 45.3061H61.3086V36.2705H64.9531C65.8729 36.2705 66.5945 36.4764 67.1179 36.8897C67.6492 37.2935 67.914 37.8455 67.914 38.5446ZM65.1299 40.0491C65.7373 40.0491 66.1632 39.9303 66.4082 39.6952C66.6524 39.4592 66.7745 39.1171 66.7745 38.6713C66.7745 38.2414 66.6477 37.9048 66.3955 37.6602C66.1417 37.4076 65.7627 37.2809 65.256 37.2809H62.4465V40.0483L65.1299 40.0491ZM62.4465 44.2949H65.3194C66.5263 44.2949 67.129 43.7557 67.129 42.6772C67.129 42.1886 66.9863 41.7967 66.6992 41.5021C66.4209 41.2068 66.045 41.0595 65.5732 41.0595H62.4465V44.2949ZM74.5908 38.8606V45.3061H73.5782V44.5348H73.5528C73.3498 44.804 73.0715 45.0321 72.717 45.2174C72.3626 45.3947 71.932 45.4826 71.4269 45.4826C70.7933 45.4826 70.2747 45.3061 69.8703 44.9521C69.4651 44.5894 69.2621 44.0589 69.2621 43.3597V38.8606H70.2747V43.1071C70.2747 43.5537 70.3889 43.9156 70.6165 44.1935C70.8441 44.4628 71.1985 44.5982 71.6791 44.5982C72.2452 44.5982 72.7004 44.4382 73.0461 44.1183C73.4006 43.7976 73.5774 43.3851 73.5774 42.8791V38.8606H74.5908ZM76.6193 37.6095C76.4609 37.6073 76.3083 37.5492 76.1887 37.4456C76.1226 37.3927 76.0699 37.3252 76.0348 37.2483C75.9997 37.1714 75.9831 37.0874 75.9865 37.0029C75.9865 36.8177 76.0539 36.6704 76.1887 36.5611C76.3082 36.4571 76.4607 36.3988 76.6193 36.3964C76.7782 36.3962 76.9317 36.4549 77.0498 36.5611C77.1846 36.6704 77.252 36.8177 77.252 37.0029C77.252 37.1882 77.1846 37.3355 77.0498 37.4456C76.9317 37.5518 76.7782 37.6102 76.6193 37.6095ZM77.1252 38.8606V45.3061H76.1133V38.8606H77.1252ZM79.5707 36.2705V45.3053H78.5581V36.2705H79.5707ZM86.6107 36.2705V45.3053H85.5981V44.5095H85.5727C85.0755 45.1588 84.3999 45.4834 83.5482 45.4834C83.0265 45.4882 82.5136 45.3481 82.067 45.0788C81.6284 44.8001 81.2787 44.4042 81.0171 43.8911C80.7633 43.3764 80.6372 42.7746 80.6372 42.0833C80.6372 41.3928 80.7641 40.7903 81.0171 40.2764C81.2787 39.7617 81.6284 39.3705 82.0677 39.1013C82.5113 38.8241 83.025 38.6794 83.5482 38.684C84.434 38.684 85.1088 39.0213 85.5727 39.6952H85.5981V36.2705H86.6107ZM83.6497 44.5982C84.2484 44.5982 84.7202 44.3709 85.0668 43.9156C85.4212 43.4524 85.5981 42.8419 85.5981 42.0833C85.5981 41.3247 85.4212 40.7182 85.0668 40.2637C84.721 39.8005 84.2484 39.5685 83.6489 39.5685C83.2279 39.5685 82.8647 39.6865 82.561 39.9224C82.2573 40.1584 82.0297 40.4704 81.8774 40.8576C81.7236 41.2478 81.6463 41.6639 81.6499 42.0833C81.6499 42.5212 81.726 42.9345 81.8774 43.3217C82.0297 43.701 82.2573 44.0082 82.561 44.2442C82.8647 44.4802 83.2271 44.5982 83.6497 44.5982ZM93.2288 36.5738V45.3061H92.0901V38.7727C91.8443 38.9999 91.5961 39.1433 91.3431 39.2019C91.0981 39.2525 90.7405 39.2779 90.2671 39.2779V38.4567C90.9847 38.4567 91.4906 38.3008 91.7856 37.9896C92.0893 37.6689 92.2756 37.1969 92.343 36.5738H93.2288Z" fill="white"/>
<path d="M149.876 33.1427H148.97C148.878 32.6654 148.605 32.2421 148.208 31.9613C148.018 31.8246 147.807 31.7212 147.583 31.6556C147.351 31.5868 147.11 31.5521 146.868 31.5527C146.415 31.5527 146.004 31.6675 145.637 31.8964C145.271 32.1244 144.981 32.4609 144.764 32.9059C144.55 33.3509 144.443 33.8965 144.443 34.5434C144.443 35.1896 144.55 35.7359 144.764 36.1801C144.981 36.6252 145.271 36.9617 145.637 37.1905C146.004 37.4186 146.415 37.5334 146.868 37.5334C147.116 37.5334 147.354 37.4993 147.583 37.4304C147.812 37.3631 148.02 37.2618 148.208 37.1288C148.603 36.8445 148.876 36.4208 148.97 35.9434H149.876C149.816 36.3048 149.689 36.6521 149.503 36.968C149.152 37.5639 148.591 38.0082 147.93 38.2151C147.587 38.3263 147.228 38.3817 146.868 38.379C146.229 38.379 145.662 38.2231 145.166 37.9119C144.669 37.6015 144.278 37.1588 143.994 36.5848C143.709 36.0115 143.566 35.3305 143.566 34.5434C143.566 33.7556 143.709 33.0754 143.994 32.5013C144.278 31.928 144.669 31.4854 145.166 31.1742C145.662 30.863 146.229 30.707 146.868 30.707C147.245 30.707 147.599 30.7625 147.93 30.8717C148.263 30.981 148.564 31.141 148.832 31.3524C149.1 31.5614 149.323 31.8172 149.503 32.1181C149.684 32.4174 149.808 32.7594 149.876 33.1427ZM151.223 38.2769V32.6763H152.055V33.522H152.114C152.216 33.2448 152.401 33.02 152.669 32.8473C152.939 32.6743 153.254 32.5845 153.574 32.5892C153.637 32.5892 153.716 32.59 153.812 32.5924C153.907 32.5947 153.978 32.5987 154.027 32.6035V33.4784C153.961 33.4649 153.893 33.4541 153.826 33.446C153.719 33.4283 153.61 33.4196 153.502 33.4198C153.229 33.4198 152.985 33.4776 152.771 33.5917C152.564 33.6993 152.39 33.8607 152.267 34.0588C152.146 34.2552 152.084 34.4801 152.084 34.7327V38.2769H151.223ZM157.229 38.3933C156.689 38.3933 156.223 38.2745 155.83 38.037C155.439 37.7945 155.127 37.4449 154.929 37.0298C154.72 36.5974 154.615 36.0938 154.615 35.5206C154.615 34.9465 154.72 34.4413 154.929 34.0034C155.122 33.5855 155.428 33.2296 155.812 32.9756C156.192 32.7278 156.635 32.6035 157.142 32.6035C157.434 32.6035 157.723 32.6518 158.007 32.7492C158.292 32.8465 158.551 33.0041 158.785 33.2235C159.018 33.4396 159.205 33.7263 159.343 34.0834C159.482 34.4413 159.552 34.8808 159.552 35.4034V35.7676H155.229V35.0249H158.676C158.676 34.7081 158.612 34.4262 158.485 34.1784C158.367 33.9364 158.182 33.7329 157.952 33.5917C157.708 33.444 157.427 33.3693 157.142 33.3763C156.799 33.3763 156.501 33.4618 156.251 33.632C156.005 33.7965 155.808 34.0227 155.677 34.2877C155.544 34.5573 155.475 34.8546 155.477 35.1555V35.652C155.477 36.0748 155.55 36.4327 155.696 36.7273C155.844 37.0187 156.05 37.242 156.313 37.3948C156.576 37.5453 156.881 37.6205 157.229 37.6205C157.456 37.6205 157.66 37.5888 157.843 37.5255C158.028 37.4605 158.187 37.3631 158.321 37.2341C158.459 37.0961 158.565 36.9292 158.631 36.7455L159.464 36.9791C159.378 37.2588 159.227 37.514 159.022 37.7234C158.805 37.9412 158.543 38.11 158.255 38.2183C157.927 38.3392 157.579 38.3985 157.229 38.3933ZM162.513 38.4083C162.158 38.4083 161.835 38.341 161.545 38.208C161.265 38.0798 161.027 37.8764 160.856 37.6205C160.685 37.3631 160.599 37.0519 160.599 36.6869C160.599 36.3662 160.663 36.1065 160.79 35.907C160.914 35.707 161.089 35.5434 161.297 35.4327C161.509 35.3186 161.743 35.2331 161.998 35.1777C162.256 35.1191 162.515 35.0732 162.776 35.0391C163.117 34.9956 163.393 34.9623 163.605 34.9409C163.819 34.9164 163.975 34.876 164.073 34.8206C164.172 34.7644 164.222 34.667 164.222 34.5284V34.4991C164.222 34.1396 164.123 33.8601 163.926 33.6605C163.732 33.4618 163.436 33.362 163.039 33.362C162.628 33.362 162.305 33.4515 162.071 33.6312C161.837 33.8118 161.673 34.0034 161.578 34.2077L160.76 33.9163C160.906 33.5758 161.101 33.3106 161.345 33.1213C161.591 32.9289 161.859 32.7951 162.148 32.7199C162.429 32.6437 162.719 32.6046 163.01 32.6035C163.19 32.6035 163.397 32.6248 163.63 32.6692C163.866 32.7104 164.094 32.7967 164.314 32.9281C164.535 33.0596 164.719 33.2575 164.865 33.522C165.011 33.7872 165.084 34.142 165.084 34.587V38.2769H164.222V37.5183H164.178C164.102 37.6633 164.004 37.7951 163.886 37.9087C163.73 38.0607 163.545 38.1809 163.342 38.2627C163.115 38.3593 162.84 38.4083 162.513 38.4083ZM162.644 37.6355C162.985 37.6355 163.272 37.5682 163.506 37.4344C163.721 37.3188 163.9 37.1479 164.026 36.9396C164.152 36.7313 164.219 36.4931 164.222 36.2498V35.462C164.185 35.5055 164.105 35.5459 163.981 35.5823C163.841 35.6202 163.7 35.6506 163.557 35.6734C163.283 35.7159 163.008 35.7523 162.732 35.7826C162.519 35.8095 162.309 35.8572 162.104 35.9252C161.912 35.9885 161.756 36.0843 161.637 36.2134C161.52 36.3401 161.461 36.5119 161.461 36.7313C161.461 37.0298 161.572 37.2562 161.794 37.4091C162.018 37.5595 162.301 37.6355 162.644 37.6355ZM169.096 32.6763V33.4056H166.189V32.6763H169.096ZM167.037 31.3342H167.898V36.6727C167.898 36.9158 167.934 37.0979 168.004 37.219C168.066 37.3289 168.164 37.4141 168.282 37.4605C168.396 37.4993 168.516 37.5183 168.643 37.5183C168.738 37.5183 168.816 37.5136 168.876 37.5041L169.023 37.4748L169.198 38.2476C169.118 38.2753 169.036 38.2973 168.953 38.3133C168.822 38.3402 168.689 38.3524 168.555 38.3498C168.312 38.3498 168.073 38.2975 167.84 38.193C167.608 38.0883 167.409 37.9234 167.263 37.7155C167.112 37.5017 167.037 37.2317 167.037 36.9062V31.3334V31.3342ZM172.683 38.3933C172.143 38.3933 171.677 38.2745 171.285 38.037C170.894 37.7945 170.581 37.4449 170.383 37.0298C170.174 36.5974 170.069 36.0938 170.069 35.5206C170.069 34.9465 170.174 34.4413 170.383 34.0034C170.576 33.5854 170.882 33.2294 171.266 32.9756C171.646 32.7278 172.09 32.6035 172.595 32.6035C172.888 32.6035 173.177 32.6518 173.461 32.7492C173.746 32.8465 174.005 33.0041 174.239 33.2235C174.472 33.4396 174.659 33.7263 174.798 34.0834C174.936 34.4413 175.006 34.8808 175.006 35.4034V35.7676H170.683V35.0249H174.13C174.13 34.7081 174.066 34.4262 173.94 34.1784C173.821 33.9367 173.636 33.7334 173.407 33.5917C173.162 33.444 172.881 33.3693 172.595 33.3763C172.253 33.3763 171.956 33.4618 171.705 33.632C171.46 33.7965 171.262 34.0227 171.132 34.2877C170.998 34.5573 170.929 34.8546 170.931 35.1555V35.652C170.931 36.0748 171.004 36.4327 171.15 36.7273C171.298 37.0187 171.504 37.242 171.767 37.3948C172.03 37.5453 172.335 37.6205 172.683 37.6205C172.909 37.6205 173.114 37.5888 173.297 37.5255C173.482 37.4605 173.641 37.3631 173.775 37.2341C173.914 37.0961 174.019 36.9292 174.085 36.7455L174.918 36.9791C174.832 37.2588 174.681 37.514 174.476 37.7234C174.259 37.9412 173.998 38.11 173.71 38.2183C173.381 38.3392 173.033 38.3985 172.683 38.3933ZM178.435 38.3933C177.967 38.3933 177.555 38.2753 177.197 38.0401C176.839 37.8018 176.559 37.4661 176.356 37.0337C176.155 36.5982 176.054 36.0843 176.054 35.4913C176.054 34.9029 176.155 34.3922 176.356 33.9599C176.559 33.5267 176.84 33.1926 177.2 32.9574C177.561 32.7214 177.977 32.6035 178.449 32.6035C178.815 32.6035 179.103 32.6644 179.314 32.7856C179.529 32.9044 179.692 33.0405 179.804 33.1942C179.919 33.3446 180.007 33.4689 180.071 33.5663H180.144V30.8092H181.005V38.2769H180.173V37.4162H180.071C180.007 37.5191 179.917 37.6474 179.8 37.8026C179.663 37.9723 179.493 38.1123 179.3 38.2143C179.084 38.3339 178.795 38.3933 178.435 38.3933ZM178.551 37.6205C178.897 37.6205 179.189 37.531 179.428 37.3513C179.666 37.1691 179.848 36.9165 179.972 36.5959C180.096 36.2728 180.158 35.899 180.158 35.4762C180.158 35.0589 180.097 34.6923 179.976 34.3787C179.853 34.0628 179.673 33.8173 179.435 33.6423C179.196 33.465 178.902 33.3763 178.551 33.3763C178.186 33.3763 177.882 33.4697 177.639 33.6574C177.39 33.8527 177.201 34.1143 177.095 34.412C176.971 34.7532 176.91 35.1141 176.916 35.477C176.916 35.8753 176.977 36.2372 177.098 36.5634C177.222 36.8865 177.405 37.1438 177.646 37.3362C177.889 37.5263 178.191 37.6205 178.551 37.6205Z" fill="#A1A1A1"/>
<path d="M207.634 44.7275H146.73C144.983 44.7275 143.566 46.1421 143.566 47.887C143.566 49.6319 144.983 51.0465 146.73 51.0465H207.634C209.381 51.0465 210.798 49.6319 210.798 47.887C210.798 46.1421 209.381 44.7275 207.634 44.7275Z" fill="#484848"/>
<path d="M309.519 32.0303H266.314C263.305 32.0303 260.865 34.4665 260.865 37.4718V44.2825C260.865 47.2878 263.305 49.7241 266.314 49.7241H309.519C312.528 49.7241 314.968 47.2878 314.968 44.2825V37.4718C314.968 34.4665 312.528 32.0303 309.519 32.0303Z" fill="#262626"/>
<path d="M277.056 43.336H275.193V37.5913H277.115C277.679 37.5913 278.162 37.7069 278.567 37.9365C278.97 38.1627 279.294 38.506 279.497 38.9208C279.714 39.3476 279.823 39.8591 279.823 40.4553C279.823 41.054 279.713 41.5679 279.494 41.9978C279.276 42.4278 278.962 42.7588 278.55 42.9908C278.138 43.2204 277.64 43.336 277.056 43.336ZM276.062 42.5782H277.008C277.446 42.5782 277.81 42.4959 278.1 42.332C278.391 42.1657 278.608 41.925 278.752 41.6114C278.897 41.2947 278.969 40.9099 278.969 40.4553C278.969 40.004 278.897 39.6223 278.752 39.308C278.622 39.0074 278.399 38.7567 278.115 38.593C277.832 38.4299 277.481 38.3491 277.062 38.3491H276.062V42.5782ZM282.694 43.4223C282.269 43.4223 281.903 43.3321 281.596 43.1507C281.29 42.9673 281.044 42.6994 280.888 42.3795C280.723 42.0469 280.64 41.6566 280.64 41.21C280.64 40.7681 280.723 40.3793 280.888 40.0428C281.054 39.7063 281.287 39.4434 281.585 39.2549C281.884 39.0657 282.234 38.9715 282.635 38.9715C282.878 38.9715 283.114 39.0111 283.343 39.0918C283.571 39.1726 283.776 39.2985 283.958 39.4711C284.14 39.6429 284.282 39.8662 284.388 40.141C284.493 40.4142 284.545 40.7459 284.545 41.1371V41.434H281.115V40.8061H283.722C283.726 40.6027 283.68 40.4013 283.587 40.2202C283.499 40.047 283.363 39.9026 283.195 39.8041C283.027 39.7056 282.835 39.6571 282.64 39.6643C282.405 39.6643 282.198 39.7221 282.022 39.8385C281.851 39.9502 281.711 40.1047 281.618 40.2867C281.524 40.4719 281.476 40.6769 281.478 40.8845V41.3755C281.478 41.6629 281.528 41.9084 281.629 42.1103C281.732 42.3122 281.876 42.4666 282.059 42.5727C282.243 42.6772 282.457 42.7303 282.702 42.7303C282.85 42.7318 282.997 42.7091 283.137 42.663C283.266 42.6198 283.383 42.5483 283.479 42.4537C283.576 42.3591 283.65 42.2438 283.696 42.1166L284.492 42.2591C284.43 42.4888 284.312 42.6996 284.149 42.8728C283.986 43.047 283.781 43.1824 283.534 43.2798C283.265 43.3789 282.98 43.4273 282.694 43.4223ZM285.477 44.9513V39.0277H286.297V39.7261H286.367C286.429 39.6168 286.499 39.5127 286.578 39.4149C286.669 39.2961 286.797 39.194 286.959 39.1061C287.123 39.0166 287.338 38.9715 287.606 38.9715C287.954 38.9715 288.265 39.0594 288.538 39.2351C288.812 39.4109 289.026 39.6643 289.181 39.9953C289.339 40.3263 289.418 40.7238 289.418 41.1902C289.418 41.6558 289.34 42.0548 289.185 42.3874C289.047 42.6974 288.825 42.9627 288.544 43.1531C288.267 43.3324 287.944 43.4253 287.614 43.42C287.352 43.42 287.138 43.3764 286.971 43.2885C286.822 43.2133 286.69 43.1081 286.584 42.9797C286.503 42.8809 286.431 42.7758 286.367 42.6653H286.316V44.9513H285.477ZM286.3 41.1822C286.3 41.4847 286.344 41.75 286.432 41.978C286.52 42.2061 286.647 42.385 286.814 42.5141C286.98 42.6408 287.185 42.7041 287.426 42.7041C287.677 42.7041 287.886 42.6384 288.055 42.5062C288.223 42.3716 288.351 42.1887 288.438 41.959C288.526 41.7286 288.569 41.4697 288.569 41.1815C288.569 40.8972 288.526 40.6422 288.44 40.4158C288.366 40.2045 288.234 40.0188 288.058 39.8805C287.89 39.749 287.679 39.6841 287.426 39.6841C287.183 39.6841 286.977 39.7467 286.808 39.8718C286.634 40.0072 286.503 40.1893 286.429 40.3968C286.338 40.6482 286.294 40.915 286.3 41.1822ZM291.199 37.5913V43.336H290.359V37.5913H291.199ZM294.145 43.4223C293.741 43.4223 293.388 43.3305 293.087 43.1452C292.784 42.958 292.54 42.6886 292.384 42.3684C292.218 42.0358 292.134 41.6463 292.134 41.2013C292.134 40.7547 292.218 40.3635 292.384 40.0293C292.551 39.6944 292.785 39.4339 293.087 39.2494C293.388 39.0641 293.741 38.9715 294.145 38.9715C294.55 38.9715 294.903 39.0641 295.205 39.2486C295.506 39.4347 295.74 39.6944 295.907 40.0286C296.073 40.3635 296.157 40.7547 296.157 41.2013C296.157 41.6463 296.073 42.035 295.907 42.3684C295.74 42.701 295.506 42.9599 295.205 43.1444C294.903 43.3305 294.55 43.4223 294.145 43.4223ZM294.149 42.7184C294.41 42.7184 294.627 42.6495 294.8 42.5109C294.972 42.3724 295.099 42.1887 295.182 41.959C295.267 41.7286 295.309 41.4752 295.309 41.1989C295.312 40.9408 295.269 40.6842 295.182 40.4411C295.109 40.2232 294.977 40.0299 294.8 39.8829C294.627 39.7427 294.41 39.673 294.149 39.673C293.884 39.673 293.666 39.7427 293.491 39.8829C293.314 40.0301 293.181 40.2233 293.107 40.4411C293.022 40.6847 292.98 40.941 292.983 41.1989C292.983 41.4752 293.024 41.7286 293.107 41.959C293.191 42.1887 293.319 42.3732 293.491 42.5109C293.666 42.6495 293.884 42.7184 294.149 42.7184ZM297.478 44.9513C297.284 44.9525 297.09 44.9212 296.906 44.8587L297.108 44.1714C297.261 44.2126 297.398 44.2308 297.518 44.2252C297.636 44.2201 297.749 44.1722 297.835 44.0906C297.929 44.0059 298.011 43.8689 298.082 43.6781L298.186 43.3922L296.608 39.0277H297.507L298.599 42.3708H298.644L299.737 39.0277H300.638L298.86 43.9109C298.788 44.117 298.682 44.3094 298.546 44.4802C298.419 44.637 298.266 44.755 298.09 44.8334C297.914 44.9125 297.711 44.9513 297.478 44.9513Z" fill="white"/>
<path d="M309.519 32.0303H266.314C263.305 32.0303 260.865 34.4665 260.865 37.4718V44.2825C260.865 47.2878 263.305 49.7241 266.314 49.7241H309.519C312.528 49.7241 314.968 47.2878 314.968 44.2825V37.4718C314.968 34.4665 312.528 32.0303 309.519 32.0303Z" stroke="#484848" stroke-width="0.473854"/>
<path d="M321.518 15.9326H20.194C16.9091 15.9326 14.2461 18.5919 14.2461 21.8723V59.8809C14.2461 63.1612 16.9091 65.8205 20.194 65.8205H321.518C324.803 65.8205 327.466 63.1612 327.466 59.8809V21.8723C327.466 18.5919 324.803 15.9326 321.518 15.9326Z" stroke="#484848" stroke-width="0.790021"/>
</g>
</g>
<g clip-path="url(#clip4_1794_3430)">
<g clip-path="url(#clip5_1794_3430)">
<path d="M331.455 62.7402H10.4689C6.96957 62.7402 4.13281 65.5829 4.13281 69.0895V109.72C4.13281 113.226 6.96957 116.069 10.4689 116.069H331.455C334.954 116.069 337.791 113.226 337.791 109.72V69.0895C337.791 65.5829 334.954 62.7402 331.455 62.7402Z" fill="#303030"/>
<path d="M39.099 76.3184H22.2473C19.688 76.3184 17.6133 78.3974 17.6133 80.962V97.849C17.6133 100.414 19.688 102.493 22.2473 102.493H39.099C41.6583 102.493 43.733 100.414 43.733 97.849V80.962C43.733 78.3974 41.6583 76.3184 39.099 76.3184Z" fill="#484848"/>
<path fill-rule="evenodd" clip-rule="evenodd" d="M29.1993 83.7061V87.0832H32.1473V83.7061H33.4118V87.0832H35.5185V88.3494H33.411V90.4603H35.5176V91.7265H33.411V95.1036H32.1473V91.7265H29.1985V95.1036H27.934V91.7265H25.8281V90.4603H27.934V88.3494H25.8281V87.0832H27.934V83.7061H29.1993ZM29.1993 88.3494V90.4603H32.1473V88.3494H29.1993Z" fill="white"/>
<path d="M39.099 76.3184H22.2473C19.688 76.3184 17.6133 78.3974 17.6133 80.962V97.849C17.6133 100.414 19.688 102.493 22.2473 102.493H39.099C41.6583 102.493 43.733 100.414 43.733 97.849V80.962C43.733 78.3974 41.6583 76.3184 39.099 76.3184Z" stroke="#585858" stroke-width="0.843008"/>
<path d="M61.302 86.9122C61.302 87.9024 60.8036 88.5694 59.8051 88.9113V88.9384C60.3319 89.0164 60.8117 89.2857 61.1533 89.6951C61.5038 90.1005 61.6795 90.6448 61.6795 91.3286C61.6795 92.2123 61.3873 92.9012 60.8027 93.3964C60.219 93.8915 59.4233 94.1395 58.4165 94.1395H54.2656V84.4805H58.1479C59.1277 84.4805 59.8964 84.7014 60.4539 85.1423C61.0198 85.5749 61.302 86.1648 61.302 86.9122ZM58.3362 88.5203C58.9833 88.5203 59.4369 88.3933 59.6979 88.1411C59.958 87.8897 60.0881 87.5249 60.0881 87.0476C60.0881 86.588 59.953 86.2274 59.6844 85.9667C59.4141 85.6959 59.0103 85.5613 58.4705 85.5613H55.4778V88.5195L58.3362 88.5203ZM55.4778 93.0587H58.5381C59.8237 93.0587 60.4657 92.4823 60.4657 91.3295C60.4657 90.8073 60.3137 90.3883 60.0079 90.0734C59.7114 89.7577 59.311 89.6003 58.8084 89.6003H55.4778V93.0587ZM68.4143 87.2499V94.1395H67.3356V93.3143H67.3086C67.0923 93.6021 66.7959 93.8458 66.4183 94.0439C66.0407 94.2326 65.582 94.3274 65.044 94.3274C64.369 94.3274 63.8166 94.1378 63.3858 93.7603C62.9542 93.3727 62.7379 92.8056 62.7379 92.0582V87.249H63.8166V91.7882C63.8166 92.2648 63.9382 92.6516 64.1807 92.9495C64.4231 93.2373 64.8007 93.3811 65.3126 93.3811C65.9157 93.3811 66.4005 93.211 66.7688 92.8682C67.1464 92.5263 67.3348 92.0853 67.3348 91.5445V87.249L68.4143 87.2499ZM70.575 85.9126C70.4063 85.9102 70.2438 85.8481 70.1164 85.7374C70.0461 85.6808 69.99 85.6086 69.9526 85.5264C69.9152 85.4443 69.8975 85.3545 69.901 85.2642C69.901 85.0662 69.9728 84.9087 70.1164 84.7911C70.2438 84.6803 70.4063 84.6183 70.575 84.6159C70.7457 84.6159 70.8986 84.6751 71.0337 84.7911C71.1773 84.9087 71.2491 85.0662 71.2491 85.2642C71.2491 85.4623 71.1773 85.6197 71.0337 85.7374C70.9079 85.8509 70.7443 85.9133 70.575 85.9126ZM71.1139 87.2499V94.1395H70.0361V87.2499H71.1139ZM73.719 84.4805V94.1395H72.6403V84.4805H73.719ZM81.2182 84.4805V94.1395H80.1395V93.288H80.1125C79.5829 93.9821 78.8632 94.3283 77.956 94.3283C77.4003 94.3337 76.854 94.1842 76.3781 93.8966C75.911 93.5987 75.5385 93.1755 75.2597 92.6262C74.9894 92.0769 74.8551 91.4327 74.8551 90.6947C74.8551 89.9558 74.9903 89.3125 75.2597 88.7632C75.5385 88.2131 75.911 87.7949 76.3789 87.5063C76.8516 87.2104 77.3987 87.056 77.956 87.0611C78.8995 87.0611 79.6184 87.4208 80.1125 88.1411H80.1395V84.4805H81.2182ZM78.0641 93.3828C78.7019 93.3828 79.2045 93.1391 79.5736 92.6532C79.9512 92.1581 80.1395 91.5047 80.1395 90.6947C80.1395 89.8838 79.9512 89.2355 79.5736 88.7497C79.2053 88.2537 78.7019 88.0065 78.0633 88.0065C77.6147 88.0065 77.2279 88.1327 76.9043 88.3849C76.5808 88.6371 76.3384 88.9697 76.1762 89.3836C76.0122 89.801 75.9299 90.2461 75.9338 90.6947C75.9338 91.1627 76.0149 91.6037 76.1762 92.0185C76.3384 92.4239 76.5808 92.7523 76.9043 93.0045C77.2279 93.2567 77.6139 93.3828 78.0641 93.3828ZM85.342 88.0743C85.342 87.056 85.6258 86.2274 86.1918 85.5884C86.7577 84.9401 87.594 84.615 88.6997 84.615C89.2135 84.6096 89.7214 84.7256 90.1821 84.9536C90.6315 85.1694 90.9914 85.4894 91.2608 85.9126C91.5303 86.3358 91.6654 86.8351 91.6654 87.4124C91.6654 87.971 91.5345 88.4619 91.2743 88.8851C91.0231 89.2886 90.6984 89.6411 90.3173 89.9245C89.9482 90.1953 89.4591 90.5102 88.8475 90.8699C88.1549 91.266 87.6252 91.6173 87.257 91.9237C86.9102 92.2101 86.6605 92.5971 86.5423 93.0316V93.0587H91.5303V94.1387H85.0726C85.0726 92.5449 85.9984 91.2076 87.8499 90.1268L88.3888 89.8161C88.9463 89.5013 89.3552 89.2491 89.6162 89.0603C89.8695 88.8887 90.0813 88.6626 90.2362 88.3984C90.3798 88.1369 90.4516 87.8127 90.4516 87.4251C90.4516 86.9486 90.3173 86.5431 90.0478 86.2097C89.7775 85.8677 89.3197 85.6967 88.6727 85.6967C87.9082 85.6967 87.3642 85.9126 87.0416 86.3451C86.718 86.7767 86.5559 87.3531 86.5559 88.0743H85.342Z" fill="white"/>
<path d="M148.614 81.1377H147.649C147.551 80.6274 147.26 80.1749 146.837 79.8749C146.635 79.7285 146.41 79.6177 146.171 79.5473C145.924 79.474 145.667 79.4372 145.409 79.4381C144.927 79.4381 144.489 79.5609 144.098 79.8046C143.709 80.0492 143.4 80.4089 143.168 80.8846C142.94 81.3603 142.826 81.9426 142.826 82.6341C142.826 83.3256 142.94 83.9088 143.168 84.3845C143.4 84.8601 143.709 85.2198 144.098 85.4645C144.491 85.7088 144.946 85.8357 145.409 85.8301C145.673 85.8301 145.928 85.7937 146.171 85.7209C146.415 85.6481 146.636 85.5406 146.837 85.3976C147.038 85.252 147.21 85.0743 147.35 84.8644C147.496 84.6417 147.598 84.3928 147.649 84.1314H148.614C148.549 84.5177 148.415 84.8889 148.217 85.2266C147.842 85.8632 147.245 86.3378 146.541 86.5588C146.176 86.678 145.793 86.7374 145.409 86.7349C144.729 86.7349 144.125 86.5681 143.596 86.2355C143.068 85.9029 142.651 85.4306 142.348 84.817C142.045 84.2042 141.893 83.4763 141.893 82.6341C141.893 81.7928 142.045 81.0649 142.348 80.4521C142.651 79.8385 143.068 79.3653 143.596 79.0327C144.125 78.7001 144.729 78.5342 145.409 78.5342C145.811 78.5342 146.188 78.5934 146.541 78.7094C146.896 78.8262 147.216 78.998 147.501 79.224C147.787 79.4474 148.025 79.72 148.217 80.0425C148.409 80.3624 148.541 80.7272 148.614 81.1377ZM150.048 86.6257V80.6392H150.935V81.5431H150.998C151.107 81.2469 151.303 81.0065 151.589 80.822C151.876 80.6367 152.212 80.5405 152.553 80.5452C152.62 80.5452 152.705 80.5469 152.806 80.5494C152.907 80.552 152.983 80.5554 153.036 80.5613V81.4966C152.965 81.4819 152.893 81.47 152.821 81.461C152.707 81.4425 152.591 81.4334 152.476 81.4339C152.185 81.4339 151.926 81.4949 151.698 81.6167C151.477 81.7318 151.292 81.9043 151.161 82.1161C151.031 82.3269 150.966 82.5672 150.966 82.8372V86.6257H150.048ZM156.447 86.7501C155.871 86.7501 155.375 86.6232 154.957 86.3684C154.54 86.1094 154.207 85.736 153.996 85.2926C153.773 84.8297 153.662 84.2922 153.662 83.6786C153.662 83.0658 153.773 82.5249 153.996 82.0577C154.202 81.6107 154.528 81.23 154.937 80.9583C155.342 80.6933 155.814 80.5604 156.354 80.5604C156.665 80.5604 156.972 80.6129 157.275 80.717C157.585 80.8242 157.867 80.9968 158.104 81.2232C158.352 81.4551 158.551 81.7615 158.699 82.1432C158.846 82.5249 158.921 82.9955 158.921 83.5541V83.9435H154.316V83.1487H157.987C157.987 82.811 157.92 82.5097 157.785 82.2448C157.659 81.9861 157.462 81.7686 157.217 81.6176C156.957 81.4597 156.658 81.3799 156.354 81.3874C155.988 81.3874 155.671 81.4779 155.404 81.6599C155.143 81.8359 154.932 82.078 154.794 82.3616C154.651 82.6498 154.578 82.9675 154.58 83.2892V83.8191C154.58 84.271 154.658 84.6545 154.813 84.9693C154.971 85.2808 155.191 85.5186 155.47 85.682C155.751 85.8428 156.076 85.924 156.447 85.924C156.688 85.924 156.905 85.8902 157.101 85.8225C157.291 85.7565 157.464 85.6502 157.61 85.511C157.757 85.3635 157.87 85.1851 157.94 84.9888L158.827 85.2376C158.734 85.5398 158.577 85.8047 158.357 86.0332C158.125 86.2664 157.847 86.447 157.54 86.5631C157.19 86.6923 156.819 86.7557 156.447 86.7501ZM162.075 86.7654C161.72 86.7705 161.368 86.6974 161.044 86.5512C160.746 86.4144 160.492 86.1973 160.31 85.924C160.128 85.6481 160.037 85.3155 160.037 84.9261C160.037 84.5834 160.104 84.3049 160.239 84.0924C160.374 83.8766 160.554 83.7073 160.78 83.5846C161.006 83.4636 161.255 83.373 161.527 83.3129C161.801 83.2503 162.077 83.2012 162.355 83.1648C162.719 83.1174 163.013 83.0827 163.238 83.059C163.466 83.0336 163.633 82.9904 163.736 82.9303C163.842 82.8711 163.895 82.767 163.895 82.6189V82.5876C163.895 82.2033 163.79 81.9045 163.58 81.6912C163.373 81.4779 163.058 81.3713 162.635 81.3713C162.197 81.3713 161.854 81.4678 161.604 81.6599C161.355 81.852 161.18 82.0577 161.079 82.2761L160.208 81.9638C160.364 81.5998 160.571 81.3171 160.831 81.114C161.093 80.9092 161.378 80.767 161.686 80.6857C161.986 80.6043 162.294 80.5625 162.605 80.5613C162.796 80.5613 163.017 80.5841 163.265 80.6307C163.517 80.6756 163.759 80.7678 163.993 80.9075C164.229 81.048 164.425 81.2596 164.58 81.5431C164.736 81.8267 164.813 82.2058 164.813 82.6815V86.6257H163.895V85.8149H163.849C163.768 85.9698 163.663 86.1107 163.538 86.2321C163.371 86.3943 163.174 86.5225 162.958 86.6096C162.717 86.7137 162.423 86.7654 162.075 86.7654ZM162.215 85.9393C162.578 85.9393 162.884 85.8682 163.133 85.7251C163.362 85.6014 163.553 85.4186 163.687 85.1958C163.821 84.973 163.893 84.7182 163.895 84.4581V83.6168C163.856 83.6633 163.771 83.7065 163.638 83.7454C163.49 83.786 163.339 83.8185 163.187 83.8428C162.895 83.8883 162.603 83.9273 162.309 83.9596C162.081 83.9882 161.857 84.0392 161.64 84.1119C161.435 84.1796 161.269 84.2812 161.142 84.4192C161.017 84.5546 160.955 84.7391 160.955 84.9727C160.955 85.2926 161.073 85.5339 161.309 85.6981C161.548 85.8589 161.849 85.9393 162.215 85.9393ZM169.088 80.6392V81.4178H165.991V80.6392H169.088ZM166.894 79.2045H167.811V84.9109C167.811 85.1708 167.849 85.3654 167.924 85.4949C168.002 85.6219 168.101 85.7082 168.22 85.7522C168.342 85.7945 168.47 85.8149 168.605 85.8149C168.706 85.8149 168.789 85.8098 168.854 85.7996L169.01 85.7683L169.197 86.5944C169.111 86.624 169.024 86.6475 168.936 86.6646C168.796 86.6934 168.654 86.7064 168.512 86.7036C168.252 86.7036 167.998 86.6477 167.75 86.536C167.503 86.4241 167.29 86.2479 167.135 86.0256C166.974 85.7971 166.894 85.5085 166.894 85.1597V79.2045ZM172.909 86.7501C172.333 86.7501 171.837 86.6232 171.419 86.3684C171.003 86.1094 170.669 85.736 170.459 85.2926C170.236 84.8297 170.124 84.2922 170.124 83.6786C170.124 83.0658 170.236 82.5249 170.459 82.0577C170.664 81.6105 170.99 81.2297 171.4 80.9583C171.804 80.6933 172.276 80.5604 172.815 80.5604C173.127 80.5604 173.434 80.6129 173.738 80.717C174.047 80.8242 174.33 80.9968 174.566 81.2232C174.815 81.4551 175.013 81.7615 175.161 82.1432C175.309 82.5249 175.383 82.9955 175.383 83.5541V83.9435H170.778V83.1487H174.45C174.45 82.811 174.382 82.5097 174.247 82.2448C174.12 81.9864 173.924 81.7691 173.679 81.6176C173.419 81.4598 173.119 81.3799 172.815 81.3874C172.45 81.3874 172.134 81.4779 171.867 81.6599C171.605 81.8359 171.394 82.078 171.256 82.3616C171.113 82.6498 171.04 82.9675 171.042 83.2892V83.8191C171.042 84.271 171.12 84.6545 171.275 84.9693C171.433 85.2808 171.653 85.5186 171.933 85.682C172.213 85.8428 172.538 85.924 172.909 85.924C173.15 85.924 173.368 85.8902 173.563 85.8225C173.753 85.7565 173.927 85.6502 174.072 85.511C174.219 85.3635 174.332 85.1851 174.402 84.9888L175.289 85.2376C175.196 85.5398 175.039 85.8047 174.819 86.0332C174.588 86.2664 174.309 86.447 174.002 86.5631C173.652 86.6923 173.282 86.7557 172.909 86.7501ZM179.036 86.7501C178.537 86.7501 178.098 86.624 177.717 86.3718C177.335 86.1179 177.037 85.759 176.822 85.2969C176.607 84.8313 176.499 84.2812 176.499 83.6481C176.499 83.0192 176.607 82.4733 176.822 82.0112C177.037 81.5482 177.337 81.191 177.72 80.9388C178.105 80.6866 178.547 80.5613 179.051 80.5613C179.44 80.5613 179.747 80.6256 179.972 80.756C180.201 80.8829 180.374 81.0285 180.494 81.1919C180.616 81.3527 180.711 81.4856 180.778 81.5897H180.856V78.6434H181.773V86.6249H180.887V85.7057H180.778C180.711 85.8149 180.614 85.9528 180.49 86.1187C180.344 86.3001 180.163 86.4498 179.957 86.5588C179.727 86.6858 179.419 86.7501 179.036 86.7501ZM179.16 85.924C179.528 85.924 179.839 85.8276 180.093 85.6363C180.347 85.4408 180.541 85.1716 180.673 84.8288C180.805 84.4835 180.871 84.084 180.871 83.632C180.871 83.1851 180.806 82.7941 180.677 82.4589C180.547 82.1212 180.355 81.8588 180.101 81.6718C179.847 81.4822 179.533 81.3874 179.16 81.3874C178.77 81.3874 178.447 81.4872 178.188 81.687C177.922 81.896 177.721 82.1759 177.608 82.4945C177.476 82.8589 177.411 83.2444 177.417 83.632C177.417 84.0586 177.482 84.4454 177.611 84.7933C177.744 85.1394 177.938 85.4145 178.195 85.6202C178.454 85.8233 178.776 85.924 179.16 85.924Z" fill="#A1A1A1"/>
<path d="M198.345 93.521H145.263C143.402 93.521 141.893 95.033 141.893 96.8981C141.893 98.7632 143.402 100.275 145.263 100.275H198.345C200.206 100.275 201.715 98.7632 201.715 96.8981C201.715 95.033 200.206 93.521 198.345 93.521Z" fill="#484848"/>
<path d="M319.675 81.1729H280.641C277.849 81.1729 275.586 83.441 275.586 86.2389V92.5713C275.586 95.3692 277.849 97.6374 280.641 97.6374H319.675C322.467 97.6374 324.73 95.3692 324.73 92.5713V86.2389C324.73 83.441 322.467 81.1729 319.675 81.1729Z" fill="#2E5235" fill-opacity="0.3"/>
<path d="M285.811 88.2413H285.069C284.993 87.8489 284.769 87.5009 284.443 87.2705C284.288 87.1578 284.115 87.0725 283.932 87.0183C283.741 86.9616 283.544 86.9331 283.345 86.9337C282.975 86.9337 282.638 87.0285 282.337 87.2164C282.038 87.4043 281.8 87.681 281.622 88.0467C281.446 88.4123 281.359 88.8609 281.359 89.3924C281.359 89.9248 281.446 90.3734 281.622 90.7382C281.8 91.1047 282.038 91.3815 282.337 91.5694C282.638 91.7573 282.975 91.8512 283.345 91.8512C283.549 91.8512 283.744 91.8233 283.932 91.7666C284.119 91.7116 284.29 91.6286 284.443 91.5186C284.768 91.2853 284.991 90.937 285.069 90.5444H285.811C285.761 90.8413 285.658 91.1266 285.506 91.3865C285.217 91.8764 284.758 92.2419 284.216 92.4124C283.935 92.5036 283.641 92.5491 283.345 92.5469C282.822 92.5469 282.358 92.4191 281.951 92.1635C281.544 91.9071 281.224 91.5431 280.99 91.0717C280.757 90.6002 280.641 90.0408 280.641 89.3933C280.641 88.7449 280.757 88.1855 280.99 87.714C281.224 87.2426 281.544 86.8786 281.951 86.6222C282.358 86.3666 282.822 86.2388 283.345 86.2388C283.655 86.2388 283.945 86.2836 284.216 86.3742C284.489 86.4639 284.736 86.5959 284.955 86.7695C285.175 86.9413 285.358 87.1512 285.506 87.3992C285.653 87.6446 285.755 87.9256 285.811 88.2413ZM291.031 86.3234H291.774V90.3878C291.774 90.8076 291.675 91.1834 291.477 91.5126C291.278 91.8433 290.991 92.112 290.649 92.2888C290.291 92.4767 289.872 92.5706 289.392 92.5706C288.911 92.5706 288.492 92.4775 288.135 92.2888C287.792 92.1118 287.504 91.8432 287.304 91.5126C287.105 91.172 287.003 90.7832 287.01 90.3886V86.3226H287.752V90.3285C287.752 90.6282 287.818 90.8956 287.95 91.1284C288.082 91.3603 288.268 91.5431 288.512 91.6777C288.757 91.8097 289.05 91.8749 289.392 91.8749C289.733 91.8749 290.026 91.8089 290.271 91.6777C290.508 91.5528 290.703 91.362 290.834 91.1284C290.968 90.8836 291.036 90.6079 291.031 90.3285V86.3226V86.3234ZM293.255 92.4631V86.3226H295.326C295.805 86.3226 296.197 86.4047 296.505 86.568C296.812 86.7305 297.04 86.9531 297.187 87.2367C297.334 87.5211 297.408 87.8435 297.408 88.2058C297.408 88.5672 297.334 88.888 297.187 89.1681C297.034 89.4536 296.797 89.6843 296.507 89.8283C296.202 89.9858 295.812 90.0645 295.337 90.0645H293.662V89.3924H295.314C295.641 89.3924 295.904 89.345 296.104 89.2485C296.291 89.1663 296.445 89.0227 296.54 88.8414C296.632 88.6637 296.678 88.4521 296.678 88.2058C296.678 87.9603 296.632 87.7445 296.54 87.5608C296.445 87.3735 296.29 87.2235 296.1 87.1351C295.899 87.0335 295.633 86.9827 295.302 86.9827H293.997V92.4631H293.255ZM296.14 89.7039L297.648 92.4631H296.786L295.302 89.7039H296.14ZM298.644 92.4631V86.3226H300.715C301.194 86.3226 301.587 86.4047 301.894 86.568C302.202 86.7305 302.429 86.9531 302.577 87.2367C302.724 87.5211 302.798 87.8435 302.798 88.2058C302.798 88.5672 302.724 88.888 302.577 89.1681C302.424 89.4532 302.186 89.6839 301.897 89.8283C301.592 89.9858 301.202 90.0645 300.728 90.0645H299.052V89.3924H300.703C301.031 89.3924 301.293 89.345 301.493 89.2485C301.695 89.1529 301.84 89.0166 301.93 88.8414C302.022 88.6637 302.067 88.4521 302.067 88.2058C302.067 87.9603 302.022 87.7445 301.93 87.5608C301.835 87.3739 301.68 87.224 301.49 87.1351C301.288 87.0335 301.022 86.9827 300.691 86.9827H299.387V92.4631H298.644ZM301.529 89.7039L303.037 92.4631H302.175L300.691 89.7039H301.529ZM304.035 92.4631V86.3226H307.733V86.9827H304.776V89.0564H307.541V89.7166H304.776V91.803H307.78V92.4631H304.035ZM313.929 86.3234V92.4631H313.21L309.871 87.6421H309.812V92.4631H309.07V86.3226H309.788L313.139 91.1555H313.199V86.3226H313.929V86.3234ZM315.079 86.9827V86.3226H319.675V86.9827H317.747V92.4631H317.006V86.9827H315.079Z" fill="#A2CEAD"/>
<path d="M319.676 81.5952H280.642C278.083 81.5952 276.008 83.6743 276.008 86.2389V92.5713C276.008 95.1359 278.083 97.215 280.642 97.215H319.676C322.235 97.215 324.31 95.1359 324.31 92.5713V86.2389C324.31 83.6743 322.235 81.5952 319.676 81.5952Z" stroke="#3A523E" stroke-width="0.843008"/>
<path d="M331.455 62.7402H10.4689C6.96957 62.7402 4.13281 65.5829 4.13281 69.0895V109.72C4.13281 113.226 6.96957 116.069 10.4689 116.069H331.455C334.954 116.069 337.791 113.226 337.791 109.72V69.0895C337.791 65.5829 334.954 62.7402 331.455 62.7402Z" stroke="#484848" stroke-width="0.843008"/>
</g>
</g>
<g clip-path="url(#clip6_1794_3430)">
<path d="M212.707 107.296L207.151 92.7911C206.842 91.9867 207.628 91.195 208.435 91.4968L222.553 96.7771C223.381 97.0868 223.429 98.2395 222.63 98.6176L217.204 101.186C216.971 101.296 216.79 101.492 216.698 101.733L214.575 107.295C214.247 108.153 213.035 108.153 212.707 107.296Z" fill="#86EFAC"/>
<path d="M213.08 107.153L207.524 92.648C207.339 92.1653 207.81 91.6904 208.294 91.8714L222.412 97.1518C222.909 97.3375 222.938 98.0292 222.459 98.2561L217.032 100.824C216.706 100.979 216.452 101.253 216.323 101.59L214.2 107.153C214.004 107.667 213.276 107.667 213.08 107.153Z" stroke="white" stroke-opacity="0.3" stroke-width="0.8" stroke-linecap="square"/>
</g>
<g filter="url(#filter0_i_1794_3430)">
<rect x="219" y="102.89" width="83" height="25" rx="12.5" fill="#86EFAC"/>
<path d="M242.183 119.89V110.186H248.201V111.446H243.647V114.403H247.769V115.659H243.647V119.89H242.183ZM249.887 119.89V112.612H251.304V119.89H249.887ZM250.603 111.489C250.357 111.489 250.145 111.407 249.968 111.242C249.794 111.075 249.707 110.876 249.707 110.645C249.707 110.411 249.794 110.212 249.968 110.048C250.145 109.881 250.357 109.797 250.603 109.797C250.849 109.797 251.059 109.881 251.233 110.048C251.41 110.212 251.499 110.411 251.499 110.645C251.499 110.876 251.41 111.075 251.233 111.242C251.059 111.407 250.849 111.489 250.603 111.489ZM256.262 122.771C255.684 122.771 255.186 122.695 254.769 122.544C254.355 122.392 254.017 122.191 253.755 121.942C253.493 121.692 253.297 121.419 253.168 121.122L254.385 120.62C254.471 120.759 254.585 120.906 254.727 121.061C254.872 121.219 255.068 121.353 255.314 121.463C255.564 121.574 255.884 121.629 256.276 121.629C256.813 121.629 257.257 121.498 257.608 121.236C257.958 120.977 258.134 120.563 258.134 119.994V118.563H258.044C257.958 118.718 257.835 118.89 257.674 119.08C257.516 119.269 257.298 119.434 257.02 119.573C256.742 119.712 256.38 119.781 255.935 119.781C255.36 119.781 254.842 119.647 254.381 119.378C253.923 119.107 253.559 118.707 253.291 118.18C253.026 117.649 252.893 116.996 252.893 116.223C252.893 115.449 253.024 114.785 253.286 114.232C253.552 113.679 253.915 113.256 254.376 112.962C254.837 112.665 255.36 112.517 255.944 112.517C256.396 112.517 256.761 112.593 257.039 112.744C257.317 112.893 257.533 113.067 257.688 113.266C257.846 113.465 257.968 113.64 258.053 113.792H258.157V112.612H259.546V120.051C259.546 120.677 259.4 121.19 259.11 121.591C258.819 121.992 258.426 122.289 257.93 122.482C257.437 122.675 256.881 122.771 256.262 122.771ZM256.248 118.606C256.655 118.606 257 118.511 257.281 118.322C257.565 118.129 257.78 117.854 257.925 117.497C258.074 117.137 258.148 116.706 258.148 116.204C258.148 115.714 258.075 115.283 257.93 114.91C257.785 114.537 257.571 114.247 257.29 114.038C257.009 113.826 256.662 113.721 256.248 113.721C255.821 113.721 255.466 113.831 255.182 114.052C254.897 114.27 254.682 114.567 254.537 114.943C254.395 115.319 254.324 115.739 254.324 116.204C254.324 116.681 254.397 117.099 254.542 117.459C254.687 117.819 254.902 118.101 255.186 118.303C255.474 118.505 255.828 118.606 256.248 118.606ZM261.446 119.89V112.612H262.806V113.796H262.896C263.048 113.395 263.296 113.082 263.64 112.858C263.984 112.631 264.396 112.517 264.877 112.517C265.363 112.517 265.771 112.631 266.099 112.858C266.431 113.086 266.676 113.398 266.834 113.796H266.909C267.083 113.408 267.36 113.098 267.739 112.868C268.118 112.634 268.57 112.517 269.094 112.517C269.754 112.517 270.293 112.724 270.71 113.138C271.13 113.552 271.34 114.175 271.34 115.009V119.89H269.923V115.142C269.923 114.649 269.789 114.292 269.52 114.071C269.252 113.85 268.931 113.74 268.558 113.74C268.097 113.74 267.739 113.882 267.483 114.166C267.227 114.447 267.099 114.809 267.099 115.251V119.89H265.687V115.052C265.687 114.657 265.564 114.34 265.317 114.1C265.071 113.86 264.75 113.74 264.355 113.74C264.087 113.74 263.839 113.811 263.611 113.953C263.387 114.092 263.206 114.286 263.067 114.536C262.931 114.785 262.863 115.074 262.863 115.403V119.89H261.446ZM275.357 120.051C274.896 120.051 274.479 119.966 274.106 119.795C273.733 119.622 273.438 119.37 273.22 119.042C273.005 118.713 272.898 118.311 272.898 117.834C272.898 117.423 272.977 117.085 273.135 116.82C273.293 116.554 273.506 116.344 273.774 116.189C274.043 116.035 274.343 115.918 274.675 115.839C275.006 115.76 275.344 115.7 275.689 115.659C276.125 115.608 276.479 115.567 276.75 115.535C277.022 115.501 277.219 115.445 277.343 115.37C277.466 115.294 277.527 115.171 277.527 115V114.967C277.527 114.553 277.41 114.232 277.177 114.005C276.946 113.777 276.602 113.664 276.144 113.664C275.667 113.664 275.291 113.77 275.016 113.981C274.744 114.19 274.556 114.422 274.452 114.678L273.121 114.374C273.278 113.932 273.509 113.575 273.812 113.304C274.119 113.029 274.471 112.83 274.869 112.706C275.267 112.58 275.686 112.517 276.125 112.517C276.415 112.517 276.723 112.552 277.049 112.621C277.377 112.688 277.684 112.811 277.968 112.991C278.256 113.171 278.491 113.428 278.674 113.763C278.857 114.095 278.949 114.526 278.949 115.057V119.89H277.565V118.895H277.508C277.417 119.078 277.279 119.258 277.096 119.435C276.913 119.612 276.678 119.759 276.39 119.876C276.103 119.993 275.758 120.051 275.357 120.051ZM275.665 118.914C276.057 118.914 276.392 118.837 276.67 118.682C276.951 118.527 277.164 118.325 277.309 118.075C277.458 117.823 277.532 117.552 277.532 117.265V116.327C277.482 116.377 277.384 116.425 277.238 116.469C277.096 116.51 276.933 116.546 276.75 116.578C276.567 116.606 276.389 116.633 276.215 116.658C276.041 116.681 275.896 116.7 275.779 116.715C275.504 116.75 275.253 116.809 275.025 116.891C274.801 116.973 274.621 117.091 274.485 117.246C274.353 117.398 274.286 117.6 274.286 117.853C274.286 118.203 274.416 118.469 274.675 118.649C274.934 118.826 275.264 118.914 275.665 118.914Z" fill="#1B1A1A"/>
</g>
<defs>
<filter id="filter0_i_1794_3430" x="219" y="102.89" width="83" height="25" filterUnits="userSpaceOnUse" color-interpolation-filters="sRGB">
<feFlood flood-opacity="0" result="BackgroundImageFix"/>
<feBlend mode="normal" in="SourceGraphic" in2="BackgroundImageFix" result="shape"/>
<feColorMatrix in="SourceAlpha" type="matrix" values="0 0 0 0 0 0 0 0 0 0 0 0 0 0 0 0 0 0 127 0" result="hardAlpha"/>
<feMorphology radius="1" operator="erode" in="SourceAlpha" result="effect1_innerShadow_1794_3430"/>
<feOffset/>
<feComposite in2="hardAlpha" operator="arithmetic" k2="-1" k3="1"/>
<feColorMatrix type="matrix" values="0 0 0 0 0.733333 0 0 0 0 0.968627 0 0 0 0 0.815686 0 0 0 0.4 0"/>
<feBlend mode="normal" in2="shape" result="effect1_innerShadow_1794_3430"/>
</filter>
<clipPath id="clip0_1794_3430">
<rect width="314.01" height="51.47" fill="white" transform="translate(13.8496 111.75)"/>
</clipPath>
<clipPath id="clip1_1794_3430">
<rect width="314.01" height="51.47" fill="white" transform="translate(13.8496 111.75)"/>
</clipPath>
<clipPath id="clip2_1794_3430">
<rect width="314.01" height="51.47" fill="white" transform="translate(13.8496 15.3301)"/>
</clipPath>
<clipPath id="clip3_1794_3430">
<rect width="314.01" height="51.47" fill="white" transform="translate(13.8496 15.3301)"/>
</clipPath>
<clipPath id="clip4_1794_3430">
<rect width="334.5" height="55.02" fill="white" transform="translate(3.71094 62.25)"/>
</clipPath>
<clipPath id="clip5_1794_3430">
<rect width="334.5" height="55.02" fill="white" transform="translate(3.71094 62.25)"/>
</clipPath>
<clipPath id="clip6_1794_3430">
<rect width="17" height="17" fill="white" transform="translate(207 91)"/>
</clipPath>
</defs>
</svg>
