<svg width="24" height="24" viewBox="0 0 24 24" fill="none" xmlns="http://www.w3.org/2000/svg">
<path d="M14.886 9.90074H9.68542C9.70305 9.87191 9.72396 9.84458 9.74811 9.81931L11.6339 7.84615H15.0347C15.957 7.84615 16.4628 8.20347 16.4628 8.85856V8.88834C16.4628 9.60298 15.838 9.90074 14.886 9.90074Z" fill="#00E676"/>
<path d="M15.481 13.8015H12.158L10.5978 11.6576H15.4215C16.5521 11.6576 17.0281 12.0744 17.0281 12.7295V12.7593C17.0281 13.4739 16.4628 13.8015 15.481 13.8015Z" fill="#00E676"/>
<path fill-rule="evenodd" clip-rule="evenodd" d="M6 0H18C21.3137 0 24 2.68629 24 6V18C24 21.3137 21.3137 24 18 24H6C2.68629 24 0 21.3137 0 18V6C0 2.68629 2.68629 0 6 0ZM10.6974 6.1521C10.7605 6.08465 10.841 6.03748 10.9289 6.01499V6H15.362C16.4926 6 17.3851 6.29777 17.9504 6.86352C18.3967 7.2804 18.6347 7.84615 18.6347 8.50124V8.53102C18.6347 9.63275 18.0397 10.2283 17.3256 10.6154C18.486 11.0323 19.2 11.6873 19.2 12.9975V13.0273C19.2 14.7841 17.7124 15.6774 15.481 15.6774H13.5231L14.6584 17.2376C14.8893 17.5548 14.6626 18 14.2703 18H12.9296C12.7755 18 12.6308 17.9261 12.5406 17.8012L8.35235 12.0076C8.17618 11.7639 7.82187 11.7403 7.61499 11.9586L7.04404 12.5609C6.95951 12.6501 6.9124 12.7682 6.9124 12.8911V15.1676C6.9124 15.4327 6.69749 15.6476 6.4324 15.6476H5.28C5.0149 15.6476 4.8 15.4327 4.8 15.1676V12.8753C4.8 12.7619 4.84013 12.6522 4.91328 12.5656L6.9124 10.1985L10.6974 6.1521ZM5.28 6C5.0149 6 4.8 6.2149 4.8 6.48V7.10353C4.8 7.53126 5.31723 7.74537 5.61955 7.4428L6.88159 6.17972C6.90131 6.15997 6.9124 6.13321 6.9124 6.10529C6.9124 6.04714 6.86525 6 6.8071 6H5.28Z" fill="#00E676"/>
</svg>
