<svg width="119" height="20" viewBox="0 0 119 20" fill="none" xmlns="http://www.w3.org/2000/svg">
<path fill-rule="evenodd" clip-rule="evenodd" d="M10.2149 0.0249757C10.0684 0.0624674 9.93414 0.141089 9.82899 0.253502L3.52066 6.99752L0.188805 10.9427C0.0668848 11.0871 0 11.2699 0 11.4589V15.2794C0 15.7212 0.358172 16.0794 0.8 16.0794H2.72066C3.16249 16.0794 3.52066 15.7212 3.52066 15.2794V11.4852C3.52066 11.2804 3.59919 11.0834 3.74006 10.9348L4.69165 9.93095C5.03645 9.56721 5.62696 9.60646 5.92058 10.0126L12.901 19.6687C13.0514 19.8768 13.2926 20 13.5493 20H15.7838C16.4377 20 16.8154 19.258 16.4307 18.7293L14.5385 16.129H17.8017C21.5207 16.129 24 14.6402 24 11.7122V11.6625C24 9.47891 22.8099 8.3871 20.876 7.69231C22.0661 7.04715 23.0579 6.05459 23.0579 4.21836V4.16873C23.0579 3.07692 22.6612 2.134 21.9174 1.43921C20.9752 0.496278 19.4876 0 17.6033 0H10.2149V0.0249757ZM8.14237 6.50124H16.8099C18.3967 6.50124 19.438 6.00496 19.438 4.8139V4.76427C19.438 3.67246 18.595 3.07692 17.0579 3.07692H11.3899L8.24685 6.36552C8.2066 6.40764 8.17175 6.45319 8.14237 6.50124ZM12.2633 13.0025H17.8017C19.438 13.0025 20.3802 12.4566 20.3802 11.2655V11.2159C20.3802 10.1241 19.5868 9.42928 17.7025 9.42928H9.66306L12.2633 13.0025Z" fill="#00E676"/>
<path d="M0 0.8C0 0.358172 0.358172 0 0.8 0H3.34517C3.44209 0 3.52066 0.0785699 3.52066 0.175491C3.52066 0.222009 3.50219 0.266623 3.46931 0.29953L1.36592 2.40466C0.862043 2.90896 0 2.55209 0 1.83921V0.8Z" fill="#00E676"/>
<path fill-rule="evenodd" clip-rule="evenodd" d="M58.7496 8.26076C58.7496 5.9261 60.6194 4 63.1905 4C65.7616 4 67.6315 5.9261 67.5731 8.26076C67.5731 10.6538 65.7032 12.5799 63.1321 12.5799C60.561 12.5799 58.7496 10.6538 58.7496 8.31912V8.26076ZM63.1905 10.8872C64.7098 10.8872 65.7032 9.71992 65.7032 8.31912C65.7032 6.85996 64.6514 5.69263 63.1905 5.69263C61.6713 5.69263 60.6779 6.85996 60.6779 8.26076C60.6779 9.71992 61.7297 10.8872 63.1905 10.8872ZM56.1201 8.08567C56.7044 7.73547 57.2304 7.21017 57.2304 6.2763C57.2304 5.69264 57.055 5.22571 56.646 4.87551C56.1785 4.40857 55.4189 4.11674 54.484 4.11674H50.6273V5.69264H54.1918C54.9514 5.69264 55.3605 5.98447 55.3605 6.56814C55.3605 7.21017 54.8346 7.44363 54.0749 7.44363H50.6273V8.96117H54.484C55.4189 8.96117 55.8279 9.31136 55.8279 9.89503C55.8279 10.4787 55.3605 10.7705 54.5424 10.7705H50.6273V12.3464H54.5424C56.4123 12.3464 57.6394 11.5877 57.6394 10.0701V10.0118C57.6394 9.01953 57.055 8.49423 56.1201 8.08567ZM34.0319 7.67709L37.4211 4.17509H35.2006L31.8115 7.79382L30 9.89501V12.4048H31.8115V9.89501L32.7464 8.90278L35.3175 12.4048H37.4796L34.0319 7.67709ZM30 4.17509V6.10119L31.8115 4.29183V4.17509H30ZM38.6482 4.17509V5.80935H44.9007V4.17509H38.6482ZM40.4597 10.8289H38.6482V12.4631H44.9591V10.8289H40.4597ZM38.6482 7.44362V9.07788H41.5115H44.9007V7.44362H38.6482ZM46.7121 12.4631V4.17509H48.5235V12.4631H46.7121ZM73.2412 4.11674H71.5467L67.9822 12.4632H69.8521L70.4949 10.9456L70.6117 10.6538L71.2545 9.01953L71.4298 8.66933L72.3647 6.33467L73.2997 8.66933L73.475 9.01953L74.1178 10.6538L74.2346 10.9456L74.8774 12.4632H76.8057L73.2412 4.11674ZM84.9865 6.91834C84.9865 8.26077 84.2853 9.0779 83.2335 9.48647L85.2786 12.4632H83.1166L81.3636 9.7783H79.9027V12.4632H78.0913V8.2024H81.7726C82.6491 8.2024 83.175 7.73547 83.175 7.03507V6.97671C83.175 6.21794 82.5907 5.80938 81.7142 5.80938H78.0913V4.23348H81.8895C82.9413 4.23348 83.7594 4.52531 84.2853 5.05061C84.7527 5.45918 84.9865 6.10121 84.9865 6.91834ZM89.895 4.17509H86.6811V6.50975H88.4925V5.80935H89.895C91.4142 5.80935 92.4076 6.85995 92.4076 8.31912V8.37748C92.4076 9.83665 91.4142 10.8289 89.895 10.8289H88.4925V8.61095H86.6811V12.5215H89.895C92.5245 12.5215 94.2775 10.7121 94.2775 8.37748C94.2775 5.92609 92.5245 4.17509 89.895 4.17509ZM95.9137 5.80935V4.17509H102.166V5.80935H95.9137ZM95.9137 12.4631V10.8289H102.225V12.4631H95.9137ZM102.166 7.44362V9.07788H95.9137V7.44362H102.166ZM109.003 9.48647C110.054 9.0779 110.756 8.26077 110.756 6.91834C110.756 6.10121 110.522 5.45918 110.054 5.05061C109.529 4.52531 108.71 4.23348 107.659 4.23348H103.86V5.80938H107.483C108.36 5.80938 108.944 6.21794 108.944 6.97671V7.03507C108.944 7.73547 108.418 8.2024 107.542 8.2024H103.86V12.4632H105.672V9.7783H107.133L108.886 12.4632H111.048L109.003 9.48647ZM114.028 6.39302C114.028 6.97668 114.379 7.15178 115.839 7.50198C117.476 7.91055 118.469 8.49421 118.469 9.95337V10.0117C118.469 11.646 117.242 12.5799 115.43 12.5799C114.203 12.5799 112.918 12.1129 111.924 11.2374L112.976 9.95337C113.677 10.537 114.495 10.9456 115.43 10.9456C116.132 10.9456 116.599 10.6538 116.599 10.1868V10.1285C116.599 9.66154 116.307 9.42808 114.904 9.07788C113.21 8.66931 112.158 8.20238 112.158 6.56811C112.158 5.05058 113.385 4.05835 115.08 4.05835C116.307 4.05835 117.359 4.40855 118.177 5.10895L117.242 6.50975C116.482 5.98445 115.781 5.69262 115.08 5.69262C114.379 5.69262 114.028 5.98445 114.028 6.39302Z" fill="white"/>
</svg>
