<svg width="173" height="24" viewBox="0 0 173 24" fill="none" xmlns="http://www.w3.org/2000/svg">
<path d="M14.886 9.90074H9.68542C9.70305 9.87191 9.72396 9.84458 9.74811 9.81931L11.6339 7.84615H15.0347C15.957 7.84615 16.4628 8.20347 16.4628 8.85856V8.88834C16.4628 9.60298 15.838 9.90074 14.886 9.90074Z" fill="#00E676"/>
<path d="M15.481 13.8015H12.158L10.5978 11.6576H15.4215C16.5521 11.6576 17.0281 12.0744 17.0281 12.7295V12.7593C17.0281 13.4739 16.4628 13.8015 15.481 13.8015Z" fill="#00E676"/>
<path fill-rule="evenodd" clip-rule="evenodd" d="M6 0H18C21.3137 0 24 2.68629 24 6V18C24 21.3137 21.3137 24 18 24H6C2.68629 24 0 21.3137 0 18V6C0 2.68629 2.68629 0 6 0ZM10.6974 6.1521C10.7605 6.08465 10.841 6.03748 10.9289 6.01499V6H15.362C16.4926 6 17.3851 6.29777 17.9504 6.86352C18.3967 7.2804 18.6347 7.84615 18.6347 8.50124V8.53102C18.6347 9.63275 18.0397 10.2283 17.3256 10.6154C18.486 11.0323 19.2 11.6873 19.2 12.9975V13.0273C19.2 14.7841 17.7124 15.6774 15.481 15.6774H13.5231L14.6584 17.2376C14.8893 17.5548 14.6626 18 14.2703 18H12.9296C12.7755 18 12.6308 17.9261 12.5406 17.8012L8.35235 12.0076C8.17618 11.7639 7.82187 11.7403 7.61499 11.9586L7.04404 12.5609C6.95951 12.6501 6.9124 12.7682 6.9124 12.8911V15.1676C6.9124 15.4327 6.69749 15.6476 6.4324 15.6476H5.28C5.0149 15.6476 4.8 15.4327 4.8 15.1676V12.8753C4.8 12.7619 4.84013 12.6522 4.91328 12.5656L6.9124 10.1985L10.6974 6.1521ZM5.28 6C5.0149 6 4.8 6.2149 4.8 6.48V7.10353C4.8 7.53126 5.31723 7.74537 5.61955 7.4428L6.88159 6.17972C6.90131 6.15997 6.9124 6.13321 6.9124 6.10529C6.9124 6.04714 6.86525 6 6.8071 6H5.28Z" fill="#00E676"/>
<path fill-rule="evenodd" clip-rule="evenodd" d="M69.2095 11.9592C69.2095 8.69388 71.8248 6 75.4208 6C79.0168 6 81.6321 8.69388 81.5503 11.9592C81.5503 15.3061 78.9351 18 75.3391 18C71.7431 18 69.2095 15.3061 69.2095 12.0408V11.9592ZM75.4208 15.6327C77.5457 15.6327 78.9351 14 78.9351 12.0408C78.9351 10 77.464 8.36735 75.4208 8.36735C73.2959 8.36735 71.9065 10 71.9065 11.9592C71.9065 14 73.3776 15.6327 75.4208 15.6327ZM65.5322 11.7143C66.3495 11.2245 67.085 10.4898 67.085 9.18368C67.085 8.36735 66.8399 7.71429 66.2678 7.2245C65.614 6.57144 64.5515 6.16327 63.2439 6.16327H57.8499V8.36735H62.8352C63.8977 8.36735 64.4698 8.77552 64.4698 9.59184C64.4698 10.4898 63.7342 10.8163 62.6718 10.8163H57.8499V12.9388H63.2439C64.5515 12.9388 65.1236 13.4286 65.1236 14.2449C65.1236 15.0612 64.4698 15.4694 63.3256 15.4694H57.8499V17.6735H63.3256C65.9409 17.6735 67.6571 16.6123 67.6571 14.4898V14.4082C67.6571 13.0204 66.8399 12.2857 65.5322 11.7143ZM34.6392 11.1429L39.3793 6.24489H36.2737L31.5335 11.3061L29 14.2449V17.7551H31.5335V14.2449L32.8412 12.8571L36.4372 17.7551H39.4611L34.6392 11.1429ZM29 6.24489V8.93877L31.5335 6.40816V6.24489H29ZM41.0958 6.24489V8.5306H49.8406V6.24489H41.0958ZM43.6294 15.551H41.0958V17.8367H49.9224V15.551H43.6294ZM41.0958 10.8163V13.102H45.1005H49.8406V10.8163H41.0958ZM52.3739 17.8367V6.24489H54.9074V17.8367H52.3739ZM89.4778 6.16327H87.1077L82.1224 17.8367H84.7376L85.6366 15.7143L85.8001 15.3061L86.6991 13.0204L86.9442 12.5306L88.2519 9.26532L89.5595 12.5306L89.8047 13.0204L90.7037 15.3061L90.8671 15.7143L91.7661 17.8367H94.4631L89.4778 6.16327ZM105.906 10.0816C105.906 11.9592 104.925 13.1021 103.454 13.6735L106.314 17.8368H103.29L100.839 14.0816H98.7954V17.8368H96.2619V11.8776H101.411C102.637 11.8776 103.372 11.2245 103.372 10.2449V10.1633C103.372 9.10205 102.555 8.53063 101.329 8.53063H96.2619V6.32654H101.574C103.045 6.32654 104.189 6.73471 104.925 7.4694C105.579 8.04083 105.906 8.93879 105.906 10.0816ZM112.771 6.24489H108.276V9.5102H110.809V8.53061H112.771C114.896 8.53061 116.285 9.99999 116.285 12.0408V12.1224C116.285 14.1633 114.896 15.551 112.771 15.551H110.809V12.449H108.276V17.9184H112.771C116.448 17.9184 118.9 15.3878 118.9 12.1224C118.9 8.69387 116.448 6.24489 112.771 6.24489ZM121.188 8.5306V6.24489H129.933V8.5306H121.188ZM121.188 17.8367V15.551H130.015V17.8367H121.188ZM129.933 10.8163V13.102H121.188V10.8163H129.933ZM139.494 13.6735C140.966 13.1021 141.946 11.9592 141.946 10.0816C141.946 8.93879 141.619 8.04083 140.966 7.4694C140.23 6.73471 139.086 6.32654 137.615 6.32654H132.302V8.53063H137.37C138.595 8.53063 139.413 9.10205 139.413 10.1633V10.2449C139.413 11.2245 138.677 11.8776 137.451 11.8776H132.302V17.8368H134.836V14.0816H136.879L139.331 17.8368H142.355L139.494 13.6735ZM146.524 9.34692C146.524 10.1632 147.014 10.4081 149.057 10.8979C151.345 11.4694 152.735 12.2857 152.735 14.3265V14.4081C152.735 16.6939 151.019 18 148.485 18C146.769 18 144.971 17.3469 143.581 16.1224L145.052 14.3265C146.033 15.1428 147.177 15.7143 148.485 15.7143C149.466 15.7143 150.119 15.3061 150.119 14.653V14.5714C150.119 13.9184 149.711 13.5918 147.749 13.102C145.379 12.5306 143.908 11.8775 143.908 9.59182C143.908 7.46937 145.625 6.08161 147.995 6.08161C149.711 6.08161 151.182 6.57141 152.326 7.551L151.019 9.51019C149.956 8.77549 148.975 8.36733 147.995 8.36733C147.014 8.36733 146.524 8.77549 146.524 9.34692Z" fill="white"/>
</svg>
