<svg width="15" height="15" viewBox="0 0 15 15" fill="none" xmlns="http://www.w3.org/2000/svg">
<path d="M4.68735 3.5L3.12485 4.375L3.99985 2.8125L3.12485 1.25L4.68735 2.125L6.24985 1.25L5.37485 2.8125L6.24985 4.375L4.68735 3.5ZM12.1874 9.625L13.7499 8.75L12.8749 10.3125L13.7499 11.875L12.1874 11L10.6249 11.875L11.4999 10.3125L10.6249 8.75L12.1874 9.625ZM13.7499 1.25L12.8749 2.8125L13.7499 4.375L12.1874 3.5L10.6249 4.375L11.4999 2.8125L10.6249 1.25L12.1874 2.125L13.7499 1.25ZM8.33735 7.9875L9.86235 6.4625L8.53735 5.1375L7.01235 6.6625L8.33735 7.9875ZM8.9811 4.55625L10.4436 6.01875C10.6874 6.25 10.6874 6.65625 10.4436 6.9L3.14985 14.1937C2.9061 14.4375 2.49985 14.4375 2.2686 14.1937L0.806104 12.7313C0.562354 12.5 0.562354 12.0937 0.806104 11.85L8.09985 4.55625C8.3436 4.3125 8.74985 4.3125 8.9811 4.55625Z" fill="white"/>
</svg>
