<svg width="66" height="66" viewBox="0 0 66 66" fill="none" xmlns="http://www.w3.org/2000/svg">
<rect width="66" height="66" rx="33" fill="white" fill-opacity="0.16"/>
<g clip-path="url(#clip0_430_625)">
<path d="M20.2372 44.0063C20.2372 46.7621 22.4712 48.9962 25.2271 48.9962C27.983 48.9962 30.217 46.7621 30.217 44.0063C30.217 41.2504 27.983 39.0164 25.2271 39.0164C22.4712 39.0164 20.2372 41.2504 20.2372 44.0063Z" fill="#3DC712"/>
<path d="M14.5726 24.8366C14.5726 27.5924 16.8067 29.8265 19.5625 29.8265C22.3184 29.8265 24.5525 27.5924 24.5525 24.8366C24.5525 22.0807 22.3184 19.8467 19.5625 19.8467C16.8067 19.8467 14.5726 22.0807 14.5726 24.8366Z" fill="#3DC712"/>
<path d="M27.6055 26.3919C27.7023 25.8884 27.753 25.3684 27.753 24.8365C27.753 24.2732 27.6962 23.7232 27.5879 23.1919H28.3395C30.6959 23.1919 32.6061 25.1022 32.6061 27.4586V34.674C32.6061 35.2631 33.0837 35.7407 33.6728 35.7407H35.7258V25.6424C35.7258 23.286 37.6361 21.3758 39.9925 21.3758H42.0775L42.0776 17.0039L49.5065 22.995L42.0774 28.9475L42.0775 24.5758H39.9925C39.4034 24.5758 38.9258 25.0533 38.9258 25.6424V35.7407H43.9984L43.9985 31.1799L51.4274 37.1711L43.9982 43.1235L43.9983 38.9407H38.9258V41.3057C38.9258 43.6621 37.0156 45.5724 34.6592 45.5724H33.4305C33.5287 45.0655 33.5801 44.5419 33.5801 44.0063C33.5801 43.4468 33.524 42.9004 33.4171 42.3724H34.6592C35.2483 42.3724 35.7258 41.8948 35.7258 41.3057V38.9407H33.6728C31.3164 38.9407 29.4061 37.0305 29.4061 34.674V27.4586C29.4061 26.8695 28.9286 26.3919 28.3395 26.3919H27.6055Z" fill="white"/>
</g>
<defs>
<clipPath id="clip0_430_625">
<rect width="40" height="40" fill="white" transform="translate(13 13)"/>
</clipPath>
</defs>
</svg>
