<svg width="342" height="208" viewBox="0 0 342 208" fill="none" xmlns="http://www.w3.org/2000/svg">
<g clip-path="url(#clip0_1794_3429)">
<g clip-path="url(#clip1_1794_3429)">
<g clip-path="url(#clip2_1794_3429)">
<path d="M197.464 89.7552C197.464 74.9644 185.442 62.9741 170.614 62.9741C155.785 62.9741 143.764 74.9644 143.764 89.7552C143.764 104.546 155.785 116.536 170.614 116.536C185.442 116.536 197.464 104.546 197.464 89.7552Z" stroke="#484848" stroke-width="0.908983" stroke-dasharray="1.82 1.82"/>
<path d="M224.769 89.7553C224.769 59.9231 200.523 35.7393 170.614 35.7393C140.705 35.7393 116.459 59.9231 116.459 89.7553C116.459 119.588 140.705 143.771 170.614 143.771C200.523 143.771 224.769 119.588 224.769 89.7553Z" stroke="#484848" stroke-width="0.908983" stroke-dasharray="1.82 1.82"/>
<path d="M252.074 89.7555C252.074 44.8817 215.603 8.50439 170.614 8.50439C125.625 8.50439 89.1543 44.8817 89.1543 89.7555C89.1543 134.629 125.625 171.007 170.614 171.007C215.603 171.007 252.074 134.629 252.074 89.7555Z" stroke="#484848" stroke-width="0.908983" stroke-dasharray="1.82 1.82"/>
</g>
</g>
<g clip-path="url(#clip3_1794_3429)">
<g clip-path="url(#clip4_1794_3429)">
<g clip-path="url(#clip5_1794_3429)">
<path d="M202.817 34.999H178.655C172.234 34.999 167.029 40.2038 167.029 46.6243V70.7866C167.029 77.207 172.234 82.4118 178.655 82.4118H202.817C209.237 82.4118 214.442 77.207 214.442 70.7866V46.6243C214.442 40.2038 209.237 34.999 202.817 34.999Z" fill="#303030"/>
<path d="M202.817 34.999H178.655C172.234 34.999 167.029 40.2038 167.029 46.6243V70.7866C167.029 77.207 172.234 82.4118 178.655 82.4118H202.817C209.237 82.4118 214.442 77.207 214.442 70.7866V46.6243C214.442 40.2038 209.237 34.999 202.817 34.999Z" stroke="#484848" stroke-width="0.910926"/>
<path fill-rule="evenodd" clip-rule="evenodd" d="M180.716 72.2178L177.277 67.9331C176.449 66.9023 176 65.6346 176 64.3299V48.815C176 46.8606 177.564 45.239 179.581 45.1013L195.532 44.0122C196.691 43.9331 197.843 44.2411 198.795 44.8847L204.399 48.6739C205.402 49.3522 206 50.461 206 51.6443V69.2832C206 71.1958 204.463 72.7793 202.488 72.9009L184.783 73.9907C183.207 74.0877 181.684 73.4237 180.716 72.2178Z" fill="white"/>
<path d="M186.248 56.5787V56.3756C186.248 55.8607 186.66 55.4337 187.192 55.3982L191.063 55.1397L196.417 63.0235V56.1041L195.039 55.9204V55.824C195.039 55.303 195.461 54.8732 195.999 54.8456L199.522 54.6652V55.1721C199.522 55.41 199.345 55.6136 199.102 55.6546L198.254 55.798V67.0037L197.191 67.3695C196.302 67.6752 195.312 67.348 194.804 66.5803L189.606 58.7372V66.223L191.206 66.5291L191.184 66.6775C191.114 67.1423 190.712 67.4939 190.227 67.5155L186.248 67.6926C186.195 67.1927 186.57 66.7456 187.087 66.6913L187.61 66.6363V56.6552L186.248 56.5787Z" fill="black"/>
<path fill-rule="evenodd" clip-rule="evenodd" d="M195.675 45.9668L179.723 47.0559C178.768 47.1211 178.027 47.8892 178.027 48.815V64.3299C178.027 65.1997 178.327 66.0448 178.878 66.7321L182.318 71.0167C182.874 71.7094 183.749 72.0909 184.654 72.0352L202.359 70.9454C203.266 70.8895 203.972 70.1619 203.972 69.2832V51.6443C203.972 51.1006 203.698 50.5911 203.237 50.2795L197.632 46.4903C197.061 46.1041 196.37 45.9193 195.675 45.9668ZM180.514 49.057C180.293 48.8927 180.398 48.5505 180.677 48.5306L195.782 47.4471C196.263 47.4126 196.742 47.5451 197.131 47.8209L200.162 49.9681C200.277 50.0496 200.223 50.2256 200.08 50.2334L184.084 51.1034C183.6 51.1297 183.122 50.9875 182.737 50.7025L180.514 49.057ZM183.334 53.8307C183.334 53.311 183.753 52.8818 184.29 52.8525L201.203 51.9315C201.726 51.903 202.167 52.3053 202.167 52.8118V68.0853C202.167 68.604 201.748 69.0328 201.213 69.0633L184.407 70.0195C183.825 70.0527 183.334 69.6052 183.334 69.0415V53.8307Z" fill="black"/>
</g>
</g>
</g>
<g clip-path="url(#clip6_1794_3429)">
<g clip-path="url(#clip7_1794_3429)">
<g clip-path="url(#clip8_1794_3429)">
<path d="M147.538 86.5679H123.375C116.955 86.5679 111.75 91.7727 111.75 98.1931V122.355C111.75 128.776 116.955 133.981 123.375 133.981H147.538C153.958 133.981 159.163 128.776 159.163 122.355V98.1931C159.163 91.7727 153.958 86.5679 147.538 86.5679Z" fill="#303030"/>
<path d="M147.538 86.5679H123.375C116.955 86.5679 111.75 91.7727 111.75 98.1931V122.355C111.75 128.776 116.955 133.981 123.375 133.981H147.538C153.958 133.981 159.163 128.776 159.163 122.355V98.1931C159.163 91.7727 153.958 86.5679 147.538 86.5679Z" stroke="#484848" stroke-width="0.910926"/>
<path d="M148.665 109.216L136.208 97.1679L135 96L125.623 105.07L121.335 109.216C120.888 109.649 120.888 110.351 121.335 110.784L129.902 119.07L135 124L144.377 114.93L144.523 114.79L148.665 110.784C149.112 110.351 149.112 109.649 148.665 109.216ZM135 114.139L130.72 110L135 105.861L139.28 110L135 114.139Z" fill="#2684FF"/>
<path fill-rule="evenodd" clip-rule="evenodd" d="M135 105.861C132.198 103.15 132.184 98.7599 134.969 96.0332L125.604 105.088L130.701 110.018L135 105.861Z" fill="url(#paint0_linear_1794_3429)"/>
<path fill-rule="evenodd" clip-rule="evenodd" d="M139.291 109.989L135 114.139C136.352 115.447 137.112 117.22 137.112 119.07C137.112 120.919 136.352 122.693 135 124L144.389 114.919L139.291 109.989Z" fill="url(#paint1_linear_1794_3429)"/>
</g>
</g>
</g>
<g clip-path="url(#clip9_1794_3429)">
<g clip-path="url(#clip10_1794_3429)">
<g clip-path="url(#clip11_1794_3429)">
<path d="M216.698 96.5913H192.535C186.115 96.5913 180.91 101.796 180.91 108.217V132.379C180.91 138.799 186.115 144.004 192.535 144.004H216.698C223.118 144.004 228.323 138.799 228.323 132.379V108.217C228.323 101.796 223.118 96.5913 216.698 96.5913Z" fill="#303030"/>
<path d="M216.698 96.5913H192.535C186.115 96.5913 180.91 101.796 180.91 108.217V132.379C180.91 138.799 186.115 144.004 192.535 144.004H216.698C223.118 144.004 228.323 138.799 228.323 132.379V108.217C228.323 101.796 223.118 96.5913 216.698 96.5913Z" stroke="#484848" stroke-width="0.910926"/>
<path fill-rule="evenodd" clip-rule="evenodd" d="M205 120C205 117.515 207.015 115.5 209.5 115.5C211.985 115.5 214 117.515 214 120C214 122.485 211.985 124.5 209.5 124.5C207.015 124.5 205 122.485 205 120Z" fill="#1ABCFE"/>
<path fill-rule="evenodd" clip-rule="evenodd" d="M196 129C196 126.515 198.015 124.5 200.5 124.5H205V129C205 131.485 202.985 133.5 200.5 133.5C198.015 133.5 196 131.485 196 129Z" fill="#0ACF83"/>
<path fill-rule="evenodd" clip-rule="evenodd" d="M205 106.5V115.5H209.5C211.985 115.5 214 113.485 214 111C214 108.515 211.985 106.5 209.5 106.5H205Z" fill="#FF7262"/>
<path fill-rule="evenodd" clip-rule="evenodd" d="M196 111C196 113.485 198.015 115.5 200.5 115.5H205V106.5H200.5C198.015 106.5 196 108.515 196 111Z" fill="#F24E1E"/>
<path fill-rule="evenodd" clip-rule="evenodd" d="M196 120C196 122.485 198.015 124.5 200.5 124.5H205V115.5H200.5C198.015 115.5 196 117.515 196 120Z" fill="#A259FF"/>
</g>
</g>
</g>
<g clip-path="url(#clip12_1794_3429)">
<g clip-path="url(#clip13_1794_3429)">
<g opacity="0.2">
<path d="M59.0456 66.3506H49.2423C46.7807 66.3506 44.7852 68.234 44.7852 70.5573V79.8099C44.7852 82.1332 46.7807 84.0166 49.2423 84.0166H59.0456C61.5072 84.0166 63.5027 82.1332 63.5027 79.8099V70.5573C63.5027 68.234 61.5072 66.3506 59.0456 66.3506Z" fill="#303030"/>
<path d="M59.0456 66.3506H49.2423C46.7807 66.3506 44.7852 68.234 44.7852 70.5573V79.8099C44.7852 82.1332 46.7807 84.0166 49.2423 84.0166H59.0456C61.5072 84.0166 63.5027 82.1332 63.5027 79.8099V70.5573C63.5027 68.234 61.5072 66.3506 59.0456 66.3506Z" stroke="#484848" stroke-width="0.864795"/>
</g>
</g>
</g>
<g clip-path="url(#clip14_1794_3429)">
<g clip-path="url(#clip15_1794_3429)">
<g opacity="0.3">
<path d="M157.905 158.42H148.102C145.64 158.42 143.645 160.305 143.645 162.629V171.887C143.645 174.211 145.64 176.096 148.102 176.096H157.905C160.367 176.096 162.362 174.211 162.362 171.887V162.629C162.362 160.305 160.367 158.42 157.905 158.42Z" fill="#303030"/>
<path d="M157.905 158.42H148.102C145.64 158.42 143.645 160.305 143.645 162.629V171.887C143.645 174.211 145.64 176.096 148.102 176.096H157.905C160.367 176.096 162.362 174.211 162.362 171.887V162.629C162.362 160.305 160.367 158.42 157.905 158.42Z" stroke="#484848" stroke-width="0.864795"/>
</g>
</g>
</g>
<g clip-path="url(#clip16_1794_3429)">
<g clip-path="url(#clip17_1794_3429)">
<g opacity="0.3">
<path d="M293.075 117.031H283.272C280.81 117.031 278.814 118.915 278.814 121.24V130.497C278.814 132.822 280.81 134.706 283.272 134.706H293.075C295.537 134.706 297.532 132.822 297.532 130.497V121.24C297.532 118.915 295.537 117.031 293.075 117.031Z" fill="#303030"/>
<path d="M293.075 117.031H283.272C280.81 117.031 278.814 118.915 278.814 121.24V130.497C278.814 132.822 280.81 134.706 283.272 134.706H293.075C295.537 134.706 297.532 132.822 297.532 130.497V121.24C297.532 118.915 295.537 117.031 293.075 117.031Z" stroke="#484848" stroke-width="0.864795"/>
</g>
</g>
</g>
<g clip-path="url(#clip18_1794_3429)">
<g clip-path="url(#clip19_1794_3429)">
<g opacity="0.6">
<path d="M274.844 30.8594H259.886C255.985 30.8594 252.822 34.1157 252.822 38.1326V53.533C252.822 57.5498 255.985 60.8061 259.886 60.8061H274.844C278.745 60.8061 281.907 57.5498 281.907 53.533V38.1326C281.907 34.1157 278.745 30.8594 274.844 30.8594Z" fill="#303030"/>
<path d="M274.844 30.8594H259.886C255.985 30.8594 252.822 34.1157 252.822 38.1326V53.533C252.822 57.5498 255.985 60.8061 259.886 60.8061H274.844C278.745 60.8061 281.907 57.5498 281.907 53.533V38.1326C281.907 34.1157 278.745 30.8594 274.844 30.8594Z" stroke="#484848" stroke-width="0.842395"/>
</g>
</g>
</g>
<g clip-path="url(#clip20_1794_3429)">
<g clip-path="url(#clip21_1794_3429)">
<g opacity="0.4">
<path d="M79.447 127.869H64.4897C60.5884 127.869 57.4258 131.124 57.4258 135.14V150.535C57.4258 154.551 60.5884 157.806 64.4897 157.806H79.447C83.3483 157.806 86.511 154.551 86.511 150.535V135.14C86.511 131.124 83.3483 127.869 79.447 127.869Z" fill="#303030"/>
<path d="M79.447 127.869H64.4897C60.5884 127.869 57.4258 131.124 57.4258 135.14V150.535C57.4258 154.551 60.5884 157.806 64.4897 157.806H79.447C83.3483 157.806 86.511 154.551 86.511 150.535V135.14C86.511 131.124 83.3483 127.869 79.447 127.869Z" stroke="#484848" stroke-width="0.842395"/>
</g>
</g>
</g>
<g clip-path="url(#clip22_1794_3429)">
<g clip-path="url(#clip23_1794_3429)">
<g opacity="0.6">
<path d="M119.556 18.1973H104.599C100.698 18.1973 97.5352 21.4526 97.5352 25.4682V40.8637C97.5352 44.8793 100.698 48.1346 104.599 48.1346H119.556C123.458 48.1346 126.62 44.8793 126.62 40.8637V25.4682C126.62 21.4526 123.458 18.1973 119.556 18.1973Z" fill="#303030"/>
<path d="M119.556 18.1973H104.599C100.698 18.1973 97.5352 21.4526 97.5352 25.4682V40.8637C97.5352 44.8793 100.698 48.1346 104.599 48.1346H119.556C123.458 48.1346 126.62 44.8793 126.62 40.8637V25.4682C126.62 21.4526 123.458 18.1973 119.556 18.1973Z" stroke="#484848" stroke-width="0.842395"/>
</g>
</g>
</g>
</g>
<g filter="url(#filter0_i_1794_3429)">
<rect x="35" y="182.89" width="63" height="25" rx="12.5" fill="#FFDE6A"/>
<path d="M53.253 190.027H55.059L58.1992 197.694H58.3148L61.455 190.027H63.2611V199.89H61.8451V192.752H61.7536L58.8446 199.876H57.6694L54.7604 192.748H54.6689V199.89H53.253V190.027ZM65.3092 199.89V192.492H66.7492V199.89H65.3092ZM66.0364 191.351C65.786 191.351 65.5709 191.267 65.3911 191.101C65.2145 190.93 65.1262 190.728 65.1262 190.494C65.1262 190.256 65.2145 190.054 65.3911 189.887C65.5709 189.717 65.786 189.632 66.0364 189.632C66.2869 189.632 66.5004 189.717 66.677 189.887C66.8568 190.054 66.9467 190.256 66.9467 190.494C66.9467 190.728 66.8568 190.93 66.677 191.101C66.5004 191.267 66.2869 191.351 66.0364 191.351ZM68.6866 199.89V192.492H70.0785V193.668H70.1555C70.2904 193.269 70.528 192.956 70.8683 192.728C71.2119 192.497 71.6004 192.382 72.0338 192.382C72.1237 192.382 72.2297 192.385 72.3517 192.391C72.4769 192.398 72.5749 192.406 72.6455 192.415V193.793C72.5877 193.777 72.485 193.759 72.3373 193.74C72.1896 193.717 72.0419 193.706 71.8942 193.706C71.5538 193.706 71.2504 193.778 70.9839 193.923C70.7206 194.064 70.5119 194.262 70.3578 194.515C70.2037 194.766 70.1266 195.051 70.1266 195.373V199.89H68.6866ZM76.7429 200.039C76.0494 200.039 75.4441 199.881 74.9272 199.563C74.4103 199.245 74.0089 198.8 73.7231 198.229C73.4374 197.657 73.2945 196.989 73.2945 196.225C73.2945 195.458 73.4374 194.787 73.7231 194.212C74.0089 193.637 74.4103 193.191 74.9272 192.873C75.4441 192.555 76.0494 192.396 76.7429 192.396C77.4365 192.396 78.0417 192.555 78.5586 192.873C79.0756 193.191 79.4769 193.637 79.7627 194.212C80.0485 194.787 80.1913 195.458 80.1913 196.225C80.1913 196.989 80.0485 197.657 79.7627 198.229C79.4769 198.8 79.0756 199.245 78.5586 199.563C78.0417 199.881 77.4365 200.039 76.7429 200.039ZM76.7477 198.831C77.1972 198.831 77.5697 198.712 77.8651 198.474C78.1605 198.237 78.3788 197.92 78.5201 197.525C78.6646 197.13 78.7368 196.695 78.7368 196.22C78.7368 195.748 78.6646 195.315 78.5201 194.92C78.3788 194.522 78.1605 194.202 77.8651 193.961C77.5697 193.721 77.1972 193.6 76.7477 193.6C76.295 193.6 75.9193 193.721 75.6207 193.961C75.3253 194.202 75.1054 194.522 74.9609 194.92C74.8196 195.315 74.749 195.748 74.749 196.22C74.749 196.695 74.8196 197.13 74.9609 197.525C75.1054 197.92 75.3253 198.237 75.6207 198.474C75.9193 198.712 76.295 198.831 76.7477 198.831Z" fill="#1B1A1A"/>
</g>
<g clip-path="url(#clip24_1794_3429)">
<path d="M93.7031 176.707L108.208 171.151C109.013 170.843 109.804 171.628 109.503 172.435L104.222 186.553C103.913 187.381 102.76 187.43 102.382 186.631L99.8136 181.205C99.7033 180.971 99.5072 180.79 99.2663 180.698L93.7042 178.575C92.8468 178.248 92.8461 177.035 93.7031 176.707Z" fill="#FFDE6A"/>
<path d="M93.8466 177.081L108.352 171.524C108.835 171.34 109.31 171.811 109.129 172.295L103.848 186.413C103.662 186.91 102.971 186.939 102.744 186.46L100.176 181.033C100.021 180.707 99.7467 180.453 99.4095 180.324L93.8473 178.201C93.3329 178.005 93.3325 177.277 93.8466 177.081Z" stroke="white" stroke-opacity="0.3" stroke-width="0.8" stroke-linecap="square"/>
</g>
<defs>
<filter id="filter0_i_1794_3429" x="35" y="182.89" width="63" height="25" filterUnits="userSpaceOnUse" color-interpolation-filters="sRGB">
<feFlood flood-opacity="0" result="BackgroundImageFix"/>
<feBlend mode="normal" in="SourceGraphic" in2="BackgroundImageFix" result="shape"/>
<feColorMatrix in="SourceAlpha" type="matrix" values="0 0 0 0 0 0 0 0 0 0 0 0 0 0 0 0 0 0 127 0" result="hardAlpha"/>
<feMorphology radius="1" operator="erode" in="SourceAlpha" result="effect1_innerShadow_1794_3429"/>
<feOffset/>
<feComposite in2="hardAlpha" operator="arithmetic" k2="-1" k3="1"/>
<feColorMatrix type="matrix" values="0 0 0 0 1 0 0 0 0 0.921569 0 0 0 0 0.643137 0 0 0 1 0"/>
<feBlend mode="normal" in2="shape" result="effect1_innerShadow_1794_3429"/>
</filter>
<linearGradient id="paint0_linear_1794_3429" x1="134.236" y1="101.673" x2="127.096" y2="104.79" gradientUnits="userSpaceOnUse">
<stop offset="0.18" stop-color="#0052CC"/>
<stop offset="1" stop-color="#2684FF"/>
</linearGradient>
<linearGradient id="paint1_linear_1794_3429" x1="135.818" y1="118.279" x2="142.944" y2="115.184" gradientUnits="userSpaceOnUse">
<stop offset="0.18" stop-color="#0052CC"/>
<stop offset="1" stop-color="#2684FF"/>
</linearGradient>
<clipPath id="clip0_1794_3429">
<rect width="341.32" height="175.72" fill="white" transform="translate(0 2.14014)"/>
</clipPath>
<clipPath id="clip1_1794_3429">
<rect width="163.83" height="163.41" fill="white" transform="translate(88.6992 8.05029)"/>
</clipPath>
<clipPath id="clip2_1794_3429">
<rect width="163.83" height="163.41" fill="white" transform="translate(88.6992 8.05029)"/>
</clipPath>
<clipPath id="clip3_1794_3429">
<rect width="47.78" height="49.19" fill="white" transform="translate(167.279 34.2402)"/>
</clipPath>
<clipPath id="clip4_1794_3429">
<rect width="47.78" height="49.19" fill="white" transform="translate(167.279 34.2402)"/>
</clipPath>
<clipPath id="clip5_1794_3429">
<rect width="49.19" height="49.19" fill="white" transform="translate(166.574 34.2402)"/>
</clipPath>
<clipPath id="clip6_1794_3429">
<rect width="47.79" height="49.19" fill="white" transform="translate(111.93 85.77)"/>
</clipPath>
<clipPath id="clip7_1794_3429">
<rect width="47.79" height="49.19" fill="white" transform="translate(111.93 85.77)"/>
</clipPath>
<clipPath id="clip8_1794_3429">
<rect width="49.19" height="49.19" fill="white" transform="translate(111.225 85.77)"/>
</clipPath>
<clipPath id="clip9_1794_3429">
<rect width="47.78" height="49.19" fill="white" transform="translate(180.789 95.9102)"/>
</clipPath>
<clipPath id="clip10_1794_3429">
<rect width="47.78" height="49.19" fill="white" transform="translate(180.789 95.9102)"/>
</clipPath>
<clipPath id="clip11_1794_3429">
<rect width="49.19" height="49.19" fill="white" transform="translate(180.084 95.9102)"/>
</clipPath>
<clipPath id="clip12_1794_3429">
<rect width="20.47" height="19.32" fill="white" transform="translate(44.3398 65.9302)"/>
</clipPath>
<clipPath id="clip13_1794_3429">
<rect width="20.47" height="19.32" fill="white" transform="translate(44.3398 65.9302)"/>
</clipPath>
<clipPath id="clip14_1794_3429">
<rect width="20.47" height="19.33" fill="white" transform="translate(143.199 158)"/>
</clipPath>
<clipPath id="clip15_1794_3429">
<rect width="20.47" height="19.33" fill="white" transform="translate(143.199 158)"/>
</clipPath>
<clipPath id="clip16_1794_3429">
<rect width="20.47" height="19.33" fill="white" transform="translate(278.369 116.61)"/>
</clipPath>
<clipPath id="clip17_1794_3429">
<rect width="20.47" height="19.33" fill="white" transform="translate(278.369 116.61)"/>
</clipPath>
<clipPath id="clip18_1794_3429">
<rect width="30.72" height="31.63" fill="white" transform="translate(252.18 30.4399)"/>
</clipPath>
<clipPath id="clip19_1794_3429">
<rect width="30.72" height="31.63" fill="white" transform="translate(252.18 30.4399)"/>
</clipPath>
<clipPath id="clip20_1794_3429">
<rect width="30.72" height="31.62" fill="white" transform="translate(57.0098 126.74)"/>
</clipPath>
<clipPath id="clip21_1794_3429">
<rect width="30.72" height="31.62" fill="white" transform="translate(57.0098 126.74)"/>
</clipPath>
<clipPath id="clip22_1794_3429">
<rect width="30.72" height="31.62" fill="white" transform="translate(96.7305 17.77)"/>
</clipPath>
<clipPath id="clip23_1794_3429">
<rect width="30.72" height="31.62" fill="white" transform="translate(96.7305 17.77)"/>
</clipPath>
<clipPath id="clip24_1794_3429">
<rect width="17" height="17" fill="white" transform="translate(110 171) rotate(90)"/>
</clipPath>
</defs>
</svg>
