<svg width="66" height="66" viewBox="0 0 66 66" fill="none" xmlns="http://www.w3.org/2000/svg">
<rect width="66" height="66" rx="33" fill="white" fill-opacity="0.16"/>
<path fill-rule="evenodd" clip-rule="evenodd" d="M33 24.6835C28.4069 24.6835 24.6834 28.407 24.6834 33.0001C24.6834 37.5932 28.4069 41.3166 33 41.3166C37.5931 41.3166 41.3165 37.5932 41.3165 33.0001C41.3165 28.407 37.5931 24.6835 33 24.6835ZM21.3568 33.0001C21.3568 26.5697 26.5696 21.3569 33 21.3569C39.4303 21.3569 44.6431 26.5697 44.6431 33.0001C44.6431 39.4304 39.4303 44.6432 33 44.6432C26.5696 44.6432 21.3568 39.4304 21.3568 33.0001Z" fill="white"/>
<path fill-rule="evenodd" clip-rule="evenodd" d="M33 18.0302C24.7324 18.0302 18.0303 24.7324 18.0303 32.9999C18.0303 41.2675 24.7324 47.9696 33 47.9696C41.2676 47.9696 47.9697 41.2675 47.9697 32.9999C47.9697 24.7324 41.2676 18.0302 33 18.0302ZM14.7037 32.9999C14.7037 22.8952 22.8952 14.7036 33 14.7036C43.1048 14.7036 51.2963 22.8952 51.2963 32.9999C51.2963 43.1047 43.1048 51.2962 33 51.2962C22.8952 51.2962 14.7037 43.1047 14.7037 32.9999Z" fill="white"/>
<path d="M28.0101 33.0002C28.0101 35.756 30.2442 37.9901 33 37.9901C35.7559 37.9901 37.9899 35.756 37.9899 33.0002C37.9899 30.2443 35.7559 28.0103 33 28.0103C30.2442 28.0103 28.0101 30.2443 28.0101 33.0002Z" fill="#67EF3E"/>
</svg>
